<mxfile host="Electron" agent="Mozilla/5.0 (Windows NT 10.0; Win64; x64) AppleWebKit/537.36 (KHTML, like Gecko) draw.io/24.7.17 Chrome/128.0.6613.36 Electron/32.0.1 Safari/537.36" version="24.7.17">
  <diagram name="Page-1" id="u8aUBlL13KQeWDRxbzS9">
    <mxGraphModel dx="1190" dy="1876" grid="1" gridSize="5" guides="0" tooltips="1" connect="0" arrows="1" fold="1" page="1" pageScale="1" pageWidth="700" pageHeight="1500" math="0" shadow="0">
      <root>
        <mxCell id="0" />
        <mxCell id="1" parent="0" />
        <mxCell id="xDn3wvnqnu_-Lds5UZNF-4" value="" style="endArrow=none;html=1;rounded=1;strokeColor=#FF0000;strokeWidth=6;startSize=0;endSize=0;" parent="1" edge="1">
          <mxGeometry width="50" height="50" relative="1" as="geometry">
            <mxPoint x="-193" y="-460" as="sourcePoint" />
            <mxPoint x="-243" y="-505" as="targetPoint" />
            <Array as="points">
              <mxPoint x="-193" y="-505" />
            </Array>
          </mxGeometry>
        </mxCell>
        <mxCell id="Ivb3BQ265d0Xipn8B_8D-4" value="" style="endArrow=none;html=1;rounded=1;curved=0;strokeWidth=6;strokeColor=#0000cc;entryX=0.935;entryY=0.588;entryDx=0;entryDy=0;entryPerimeter=0;" edge="1" parent="1" target="Ivb3BQ265d0Xipn8B_8D-19">
          <mxGeometry width="50" height="50" relative="1" as="geometry">
            <mxPoint x="-338" y="-395" as="sourcePoint" />
            <mxPoint x="-168" y="-520" as="targetPoint" />
            <Array as="points">
              <mxPoint x="-338" y="-495" />
              <mxPoint x="-168" y="-495" />
            </Array>
          </mxGeometry>
        </mxCell>
        <mxCell id="xDn3wvnqnu_-Lds5UZNF-7" value="" style="endArrow=none;html=1;rounded=1;labelBackgroundColor=default;strokeColor=#66B2FF;strokeWidth=6;fontFamily=Helvetica;fontSize=11;fontColor=default;startSize=0;endSize=0;shape=connector;endFill=0;" parent="1" edge="1">
          <mxGeometry width="50" height="50" relative="1" as="geometry">
            <mxPoint x="-263" y="-635" as="sourcePoint" />
            <mxPoint x="-198" y="-605" as="targetPoint" />
            <Array as="points">
              <mxPoint x="-228" y="-635" />
            </Array>
          </mxGeometry>
        </mxCell>
        <mxCell id="xDn3wvnqnu_-Lds5UZNF-3" value="" style="endArrow=none;html=1;rounded=1;strokeColor=#66B2FF;strokeWidth=6;endFill=0;entryX=0;entryY=0;entryDx=0;entryDy=0;entryPerimeter=0;" parent="1" target="Ria-s_h3xSO_SLDeOQL_-8" edge="1">
          <mxGeometry width="50" height="50" relative="1" as="geometry">
            <mxPoint x="-193" y="-540" as="sourcePoint" />
            <mxPoint x="-168" y="-585" as="targetPoint" />
            <Array as="points">
              <mxPoint x="-193" y="-600" />
            </Array>
          </mxGeometry>
        </mxCell>
        <mxCell id="LhJ2MKZEmk0QEzE14GEJ-14" value="" style="endArrow=none;html=1;rounded=1;labelBackgroundColor=default;strokeColor=#808080;strokeWidth=6;fontFamily=Helvetica;fontSize=11;fontColor=default;startSize=0;endSize=0;shape=connector;" parent="1" edge="1">
          <mxGeometry width="50" height="50" relative="1" as="geometry">
            <mxPoint x="-303" y="-365" as="sourcePoint" />
            <mxPoint x="-218" y="-365" as="targetPoint" />
            <Array as="points" />
          </mxGeometry>
        </mxCell>
        <mxCell id="LhJ2MKZEmk0QEzE14GEJ-16" value="" style="endArrow=none;html=1;rounded=1;labelBackgroundColor=default;strokeColor=#808080;strokeWidth=6;fontFamily=Helvetica;fontSize=11;fontColor=default;startSize=0;endSize=0;shape=connector;" parent="1" edge="1" source="Ivb3BQ265d0Xipn8B_8D-9">
          <mxGeometry width="50" height="50" relative="1" as="geometry">
            <mxPoint x="-338" y="-365" as="sourcePoint" />
            <mxPoint x="-283" y="-365" as="targetPoint" />
            <Array as="points" />
          </mxGeometry>
        </mxCell>
        <mxCell id="Rw5dygfvGm5HHu7KgE6S-61" value="" style="endArrow=none;html=1;rounded=1;endFill=0;strokeColor=#FF99FF;strokeWidth=6;" parent="1" edge="1">
          <mxGeometry width="50" height="50" relative="1" as="geometry">
            <mxPoint x="-548" y="-1115" as="sourcePoint" />
            <mxPoint x="-548" y="-1395" as="targetPoint" />
            <Array as="points">
              <mxPoint x="-548" y="-1135" />
              <mxPoint x="-568" y="-1155" />
              <mxPoint x="-568" y="-1195" />
              <mxPoint x="-488" y="-1195" />
              <mxPoint x="-488" y="-1235" />
              <mxPoint x="-588" y="-1235" />
              <mxPoint x="-588" y="-1320" />
              <mxPoint x="-548" y="-1350" />
            </Array>
          </mxGeometry>
        </mxCell>
        <mxCell id="Rw5dygfvGm5HHu7KgE6S-41" value="" style="endArrow=none;html=1;rounded=1;endFill=0;strokeWidth=6;strokeColor=#9933FF;" parent="1" edge="1">
          <mxGeometry width="50" height="50" relative="1" as="geometry">
            <mxPoint x="-248" y="-875" as="sourcePoint" />
            <mxPoint x="-548" y="-1115" as="targetPoint" />
            <Array as="points">
              <mxPoint x="-248" y="-930" />
              <mxPoint x="-273" y="-955" />
              <mxPoint x="-548" y="-954" />
              <mxPoint x="-548" y="-995" />
              <mxPoint x="-508" y="-995" />
              <mxPoint x="-508" y="-1015" />
              <mxPoint x="-508" y="-1035" />
              <mxPoint x="-538" y="-1065" />
              <mxPoint x="-548" y="-1075" />
              <mxPoint x="-548" y="-1090" />
            </Array>
          </mxGeometry>
        </mxCell>
        <mxCell id="Rw5dygfvGm5HHu7KgE6S-21" value="" style="endArrow=none;html=1;rounded=1;endFill=0;strokeWidth=6;strokeColor=#00CC00;" parent="1" edge="1">
          <mxGeometry width="50" height="50" relative="1" as="geometry">
            <mxPoint x="-288" y="-670" as="sourcePoint" />
            <mxPoint x="-248" y="-875" as="targetPoint" />
            <Array as="points">
              <mxPoint x="-288" y="-715" />
              <mxPoint x="-548" y="-715" />
              <mxPoint x="-548" y="-795" />
              <mxPoint x="-273" y="-795" />
              <mxPoint x="-248" y="-820" />
            </Array>
          </mxGeometry>
        </mxCell>
        <mxCell id="Ria-s_h3xSO_SLDeOQL_-22" value="" style="endArrow=none;html=1;rounded=1;labelBackgroundColor=default;strokeColor=#FF0000;strokeWidth=6;fontFamily=Helvetica;fontSize=11;fontColor=default;startSize=0;endSize=0;shape=connector;exitX=0;exitY=0;exitDx=0;exitDy=0;" parent="1" edge="1">
          <mxGeometry width="50" height="50" relative="1" as="geometry">
            <mxPoint x="-321.5355339059329" y="-518.5355339059329" as="sourcePoint" />
            <mxPoint x="-298" y="-505" as="targetPoint" />
            <Array as="points">
              <mxPoint x="-308" y="-505" />
            </Array>
          </mxGeometry>
        </mxCell>
        <mxCell id="Ria-s_h3xSO_SLDeOQL_-14" value="" style="endArrow=none;html=1;rounded=1;strokeColor=#66B2FF;strokeWidth=6;endFill=0;" parent="1" edge="1">
          <mxGeometry width="50" height="50" relative="1" as="geometry">
            <mxPoint x="-248" y="-635" as="sourcePoint" />
            <mxPoint x="-288" y="-670" as="targetPoint" />
            <Array as="points">
              <mxPoint x="-288" y="-635" />
            </Array>
          </mxGeometry>
        </mxCell>
        <mxCell id="Ria-s_h3xSO_SLDeOQL_-9" value="" style="endArrow=none;html=1;rounded=1;strokeColor=#66B2FF;strokeWidth=6;endFill=0;" parent="1" edge="1">
          <mxGeometry width="50" height="50" relative="1" as="geometry">
            <mxPoint x="-258.0000000000173" y="-635" as="sourcePoint" />
            <mxPoint x="-258" y="-635" as="targetPoint" />
            <Array as="points" />
          </mxGeometry>
        </mxCell>
        <mxCell id="Ria-s_h3xSO_SLDeOQL_-2" value="" style="endArrow=none;html=1;rounded=1;strokeColor=#66B2FF;strokeWidth=6;endFill=0;" parent="1" edge="1">
          <mxGeometry width="50" height="50" relative="1" as="geometry">
            <mxPoint x="-243" y="-510" as="sourcePoint" />
            <mxPoint x="-193" y="-555" as="targetPoint" />
            <Array as="points">
              <mxPoint x="-193" y="-510" />
            </Array>
          </mxGeometry>
        </mxCell>
        <mxCell id="2lCTwFAhln7CDwlXWDaY-96" value="" style="endArrow=none;html=1;rounded=1;labelBackgroundColor=default;strokeColor=#FF0000;strokeWidth=6;fontFamily=Helvetica;fontSize=11;fontColor=default;startSize=0;endSize=0;shape=connector;exitX=0.5;exitY=1;exitDx=0;exitDy=0;entryX=0.5;entryY=0;entryDx=0;entryDy=0;" parent="1" target="2lCTwFAhln7CDwlXWDaY-93" edge="1">
          <mxGeometry width="50" height="50" relative="1" as="geometry">
            <mxPoint x="-193" y="-395" as="sourcePoint" />
            <mxPoint x="-198" y="-485" as="targetPoint" />
          </mxGeometry>
        </mxCell>
        <mxCell id="2lCTwFAhln7CDwlXWDaY-95" value="" style="endArrow=none;html=1;rounded=1;labelBackgroundColor=default;strokeColor=#FF0000;strokeWidth=6;fontFamily=Helvetica;fontSize=11;fontColor=default;startSize=0;endSize=0;shape=connector;exitX=0.5;exitY=1;exitDx=0;exitDy=0;entryX=0.5;entryY=0;entryDx=0;entryDy=0;" parent="1" source="2lCTwFAhln7CDwlXWDaY-93" target="2lCTwFAhln7CDwlXWDaY-92" edge="1">
          <mxGeometry width="50" height="50" relative="1" as="geometry">
            <mxPoint x="-248" y="-435" as="sourcePoint" />
            <mxPoint x="-158" y="-475" as="targetPoint" />
          </mxGeometry>
        </mxCell>
        <mxCell id="2lCTwFAhln7CDwlXWDaY-91" value="" style="endArrow=none;html=1;rounded=1;labelBackgroundColor=default;strokeColor=#FF0000;strokeWidth=6;fontFamily=Helvetica;fontSize=11;fontColor=default;startSize=0;endSize=0;shape=connector;exitX=1;exitY=1;exitDx=0;exitDy=0;" parent="1" source="2lCTwFAhln7CDwlXWDaY-90" edge="1">
          <mxGeometry width="50" height="50" relative="1" as="geometry">
            <mxPoint x="-338" y="-520" as="sourcePoint" />
            <mxPoint x="-402" y="-595" as="targetPoint" />
            <Array as="points">
              <mxPoint x="-392" y="-595" />
            </Array>
          </mxGeometry>
        </mxCell>
        <mxCell id="2lCTwFAhln7CDwlXWDaY-89" value="" style="endArrow=none;html=1;rounded=1;labelBackgroundColor=default;strokeColor=#FF0000;strokeWidth=6;fontFamily=Helvetica;fontSize=11;fontColor=default;startSize=0;endSize=0;shape=connector;exitX=1;exitY=1;exitDx=0;exitDy=0;entryX=0.5;entryY=0.5;entryDx=0;entryDy=0;entryPerimeter=0;" parent="1" target="2lCTwFAhln7CDwlXWDaY-90" edge="1">
          <mxGeometry width="50" height="50" relative="1" as="geometry">
            <mxPoint x="-314.46446609406723" y="-511.4644660940671" as="sourcePoint" />
            <mxPoint x="-303" y="-560" as="targetPoint" />
          </mxGeometry>
        </mxCell>
        <mxCell id="2lCTwFAhln7CDwlXWDaY-88" value="" style="endArrow=none;html=1;rounded=1;labelBackgroundColor=default;strokeColor=#FF0000;strokeWidth=6;fontFamily=Helvetica;fontSize=11;fontColor=default;startSize=0;endSize=0;shape=connector;" parent="1" edge="1">
          <mxGeometry width="50" height="50" relative="1" as="geometry">
            <mxPoint x="-293" y="-505" as="sourcePoint" />
            <mxPoint x="-243" y="-505" as="targetPoint" />
            <Array as="points" />
          </mxGeometry>
        </mxCell>
        <mxCell id="2lCTwFAhln7CDwlXWDaY-76" value="" style="endArrow=none;html=1;rounded=1;labelBackgroundColor=default;strokeColor=#FF0000;strokeWidth=6;fontFamily=Helvetica;fontSize=11;fontColor=default;startSize=0;endSize=0;shape=connector;exitX=0;exitY=1;exitDx=0;exitDy=0;" parent="1" source="2lCTwFAhln7CDwlXWDaY-73" edge="1">
          <mxGeometry width="50" height="50" relative="1" as="geometry">
            <mxPoint x="-493" y="-600" as="sourcePoint" />
            <mxPoint x="-396" y="-595" as="targetPoint" />
            <Array as="points">
              <mxPoint x="-518" y="-595" />
            </Array>
          </mxGeometry>
        </mxCell>
        <mxCell id="2lCTwFAhln7CDwlXWDaY-72" value="" style="endArrow=none;html=1;rounded=1;labelBackgroundColor=default;strokeColor=#FF0000;strokeWidth=6;fontFamily=Helvetica;fontSize=11;fontColor=default;startSize=0;endSize=0;shape=connector;exitX=0.5;exitY=1;exitDx=0;exitDy=0;fillColor=#FF0000;" parent="1" source="2lCTwFAhln7CDwlXWDaY-66" edge="1">
          <mxGeometry width="50" height="50" relative="1" as="geometry">
            <mxPoint x="-513" y="-560" as="sourcePoint" />
            <mxPoint x="-528" y="-585" as="targetPoint" />
            <Array as="points">
              <mxPoint x="-548" y="-565" />
            </Array>
          </mxGeometry>
        </mxCell>
        <mxCell id="2lCTwFAhln7CDwlXWDaY-69" value="" style="endArrow=none;html=1;rounded=1;labelBackgroundColor=default;strokeColor=#FF0000;strokeWidth=6;fontFamily=Helvetica;fontSize=11;fontColor=default;startSize=0;endSize=0;shape=connector;exitX=0.5;exitY=1;exitDx=0;exitDy=0;" parent="1" source="2lCTwFAhln7CDwlXWDaY-64" edge="1">
          <mxGeometry width="50" height="50" relative="1" as="geometry">
            <mxPoint x="-528" y="-495" as="sourcePoint" />
            <mxPoint x="-548" y="-555" as="targetPoint" />
          </mxGeometry>
        </mxCell>
        <mxCell id="2lCTwFAhln7CDwlXWDaY-63" value="" style="endArrow=none;html=1;rounded=1;labelBackgroundColor=default;strokeColor=#FF0000;strokeWidth=6;fontFamily=Helvetica;fontSize=11;fontColor=default;startSize=0;endSize=0;shape=connector;exitX=0.5;exitY=1;exitDx=0;exitDy=0;entryX=0.5;entryY=0;entryDx=0;entryDy=0;" parent="1" source="2lCTwFAhln7CDwlXWDaY-56" target="2lCTwFAhln7CDwlXWDaY-64" edge="1">
          <mxGeometry width="50" height="50" relative="1" as="geometry">
            <mxPoint x="-408" y="-485" as="sourcePoint" />
            <mxPoint x="-548" y="-510" as="targetPoint" />
          </mxGeometry>
        </mxCell>
        <mxCell id="2lCTwFAhln7CDwlXWDaY-54" value="" style="endArrow=none;html=1;rounded=1;labelBackgroundColor=default;strokeColor=#FF0000;strokeWidth=6;fontFamily=Helvetica;fontSize=11;fontColor=default;startSize=0;endSize=0;shape=connector;entryX=0.5;entryY=0;entryDx=0;entryDy=0;" parent="1" target="2lCTwFAhln7CDwlXWDaY-56" edge="1">
          <mxGeometry width="50" height="50" relative="1" as="geometry">
            <mxPoint x="-548" y="-415" as="sourcePoint" />
            <mxPoint x="-538" y="-505" as="targetPoint" />
            <Array as="points" />
          </mxGeometry>
        </mxCell>
        <mxCell id="2lCTwFAhln7CDwlXWDaY-45" value="" style="endArrow=none;html=1;rounded=1;labelBackgroundColor=default;strokeColor=#FF0000;strokeWidth=6;fontFamily=Helvetica;fontSize=11;fontColor=default;startSize=0;endSize=0;shape=connector;entryX=1;entryY=1;entryDx=0;entryDy=0;" parent="1" target="2lCTwFAhln7CDwlXWDaY-42" edge="1">
          <mxGeometry width="50" height="50" relative="1" as="geometry">
            <mxPoint x="-548" y="-415" as="sourcePoint" />
            <mxPoint x="-563" y="-350" as="targetPoint" />
            <Array as="points">
              <mxPoint x="-548" y="-355" />
            </Array>
          </mxGeometry>
        </mxCell>
        <mxCell id="2lCTwFAhln7CDwlXWDaY-41" value="" style="endArrow=none;html=1;rounded=1;labelBackgroundColor=default;strokeColor=#FF0000;strokeWidth=6;fontFamily=Helvetica;fontSize=11;fontColor=default;startSize=0;endSize=0;shape=connector;entryX=1;entryY=0;entryDx=0;entryDy=0;exitX=0;exitY=0;exitDx=0;exitDy=0;" parent="1" source="2lCTwFAhln7CDwlXWDaY-42" target="2lCTwFAhln7CDwlXWDaY-32" edge="1">
          <mxGeometry width="50" height="50" relative="1" as="geometry">
            <mxPoint x="-528" y="-355" as="sourcePoint" />
            <mxPoint x="-438" y="-355" as="targetPoint" />
            <Array as="points">
              <mxPoint x="-518" y="-325" />
              <mxPoint x="-448" y="-325" />
            </Array>
          </mxGeometry>
        </mxCell>
        <mxCell id="2lCTwFAhln7CDwlXWDaY-39" value="" style="endArrow=none;html=1;rounded=1;labelBackgroundColor=default;strokeColor=#808080;strokeWidth=6;fontFamily=Helvetica;fontSize=11;fontColor=default;startSize=0;endSize=0;shape=connector;entryX=0.397;entryY=0.989;entryDx=0;entryDy=0;exitX=1;exitY=0.5;exitDx=0;exitDy=0;entryPerimeter=0;" parent="1" source="LhJ2MKZEmk0QEzE14GEJ-2" edge="1">
          <mxGeometry width="50" height="50" relative="1" as="geometry">
            <mxPoint x="-338" y="-355" as="sourcePoint" />
            <mxPoint x="-199.18000000000006" y="-395.22" as="targetPoint" />
            <Array as="points">
              <mxPoint x="-223" y="-365" />
              <mxPoint x="-199" y="-365" />
            </Array>
          </mxGeometry>
        </mxCell>
        <mxCell id="2lCTwFAhln7CDwlXWDaY-34" value="" style="endArrow=none;html=1;rounded=1;labelBackgroundColor=default;strokeColor=#FF0000;strokeWidth=6;fontFamily=Helvetica;fontSize=11;fontColor=default;startSize=0;endSize=0;shape=connector;entryX=0;entryY=1;entryDx=0;entryDy=0;" parent="1" target="2lCTwFAhln7CDwlXWDaY-32" edge="1">
          <mxGeometry width="50" height="50" relative="1" as="geometry">
            <mxPoint x="-348" y="-305" as="sourcePoint" />
            <mxPoint x="-388" y="-380" as="targetPoint" />
            <Array as="points">
              <mxPoint x="-348" y="-395" />
              <mxPoint x="-378" y="-395" />
            </Array>
          </mxGeometry>
        </mxCell>
        <mxCell id="2lCTwFAhln7CDwlXWDaY-20" value="" style="endArrow=none;html=1;rounded=1;labelBackgroundColor=default;strokeColor=#FF0000;strokeWidth=6;fontFamily=Helvetica;fontSize=11;fontColor=default;startSize=0;endSize=0;shape=connector;exitX=0.807;exitY=0.777;exitDx=0;exitDy=0;exitPerimeter=0;" parent="1" source="2lCTwFAhln7CDwlXWDaY-9" edge="1">
          <mxGeometry width="50" height="50" relative="1" as="geometry">
            <mxPoint x="-308" y="-220" as="sourcePoint" />
            <mxPoint x="-348" y="-325" as="targetPoint" />
            <Array as="points">
              <mxPoint x="-348" y="-275" />
            </Array>
          </mxGeometry>
        </mxCell>
        <mxCell id="2lCTwFAhln7CDwlXWDaY-5" value="" style="endArrow=none;html=1;rounded=1;labelBackgroundColor=default;strokeColor=#FF0000;strokeWidth=6;fontFamily=Helvetica;fontSize=11;fontColor=default;startSize=0;endSize=0;shape=connector;entryX=1;entryY=0;entryDx=0;entryDy=0;" parent="1" source="tzKpOQWYOQej8DqPO7ZZ-4" target="2lCTwFAhln7CDwlXWDaY-3" edge="1">
          <mxGeometry width="50" height="50" relative="1" as="geometry">
            <mxPoint x="-223" y="-230" as="sourcePoint" />
            <mxPoint x="-243" y="-290" as="targetPoint" />
            <Array as="points">
              <mxPoint x="-223" y="-305" />
            </Array>
          </mxGeometry>
        </mxCell>
        <mxCell id="2lCTwFAhln7CDwlXWDaY-2" value="" style="endArrow=none;html=1;rounded=1;strokeColor=#FF0000;strokeWidth=6;startSize=0;endSize=0;startArrow=none;entryX=0.5;entryY=0;entryDx=0;entryDy=0;exitX=0;exitY=1;exitDx=0;exitDy=0;" parent="1" source="2lCTwFAhln7CDwlXWDaY-3" edge="1">
          <mxGeometry width="50" height="50" relative="1" as="geometry">
            <mxPoint x="-238" y="-295" as="sourcePoint" />
            <mxPoint x="-193" y="-415" as="targetPoint" />
            <Array as="points">
              <mxPoint x="-193" y="-335" />
              <mxPoint x="-193" y="-375" />
            </Array>
          </mxGeometry>
        </mxCell>
        <mxCell id="2lCTwFAhln7CDwlXWDaY-8" value="" style="group" parent="1" connectable="0" vertex="1">
          <mxGeometry x="-263" y="-340" width="95" height="25" as="geometry" />
        </mxCell>
        <mxCell id="2lCTwFAhln7CDwlXWDaY-3" value="" style="ellipse;whiteSpace=wrap;html=1;aspect=fixed;" parent="2lCTwFAhln7CDwlXWDaY-8" vertex="1">
          <mxGeometry x="48.61111111111111" y="15" width="10" height="10" as="geometry" />
        </mxCell>
        <mxCell id="2lCTwFAhln7CDwlXWDaY-43" value="&lt;font style=&quot;font-size: 12px;&quot;&gt;&lt;font style=&quot;font-size: 12px;&quot; color=&quot;#ffffff&quot;&gt;&lt;b style=&quot;&quot;&gt;環状線&lt;/b&gt;&lt;/font&gt;&lt;/font&gt;" style="rounded=1;whiteSpace=wrap;html=1;fontFamily=Helvetica;fontSize=11;fontColor=default;strokeColor=none;fillColor=#FF0000;opacity=90;" parent="1" vertex="1">
          <mxGeometry x="-433" y="-415" width="45" height="20" as="geometry" />
        </mxCell>
        <mxCell id="2lCTwFAhln7CDwlXWDaY-46" value="" style="group" parent="1" connectable="0" vertex="1">
          <mxGeometry x="-473" y="-385" width="70" height="25" as="geometry" />
        </mxCell>
        <mxCell id="2lCTwFAhln7CDwlXWDaY-32" value="" style="ellipse;whiteSpace=wrap;html=1;aspect=fixed;" parent="2lCTwFAhln7CDwlXWDaY-46" vertex="1">
          <mxGeometry x="59.230769230769226" y="15" width="10" height="10" as="geometry" />
        </mxCell>
        <mxCell id="2lCTwFAhln7CDwlXWDaY-38" value="&lt;font style=&quot;font-size: 10px;&quot;&gt;&lt;b&gt;西人間の里&lt;/b&gt;&lt;/font&gt;" style="text;html=1;strokeColor=none;fillColor=none;align=center;verticalAlign=middle;whiteSpace=wrap;rounded=0;fontSize=11;fontFamily=Helvetica;fontColor=default;" parent="2lCTwFAhln7CDwlXWDaY-46" vertex="1">
          <mxGeometry x="-5" width="64.23" height="15" as="geometry" />
        </mxCell>
        <mxCell id="2lCTwFAhln7CDwlXWDaY-47" value="" style="group" parent="1" connectable="0" vertex="1">
          <mxGeometry x="-572" y="-346" width="42.5" height="25" as="geometry" />
        </mxCell>
        <mxCell id="2lCTwFAhln7CDwlXWDaY-42" value="" style="ellipse;whiteSpace=wrap;html=1;aspect=fixed;" parent="2lCTwFAhln7CDwlXWDaY-47" vertex="1">
          <mxGeometry x="32.5" width="10" height="10" as="geometry" />
        </mxCell>
        <mxCell id="2lCTwFAhln7CDwlXWDaY-44" value="&lt;b&gt;&lt;font style=&quot;font-size: 10px;&quot;&gt;命蓮寺&lt;/font&gt;&lt;/b&gt;" style="text;html=1;strokeColor=none;fillColor=none;align=center;verticalAlign=middle;whiteSpace=wrap;rounded=0;fontSize=11;fontFamily=Helvetica;fontColor=default;" parent="2lCTwFAhln7CDwlXWDaY-47" vertex="1">
          <mxGeometry x="-5" y="10" width="37.5" height="15" as="geometry" />
        </mxCell>
        <mxCell id="2lCTwFAhln7CDwlXWDaY-53" value="" style="group" parent="1" connectable="0" vertex="1">
          <mxGeometry x="-598" y="-397" width="50" height="15" as="geometry" />
        </mxCell>
        <mxCell id="2lCTwFAhln7CDwlXWDaY-52" value="&lt;b&gt;&lt;font style=&quot;font-size: 10px;&quot;&gt;北命蓮寺&lt;/font&gt;&lt;/b&gt;" style="text;html=1;strokeColor=none;fillColor=none;align=center;verticalAlign=middle;whiteSpace=wrap;rounded=0;fontSize=11;fontFamily=Helvetica;fontColor=default;" parent="2lCTwFAhln7CDwlXWDaY-53" vertex="1">
          <mxGeometry x="-4.166666666666666" width="41.66666666666666" height="15" as="geometry" />
        </mxCell>
        <mxCell id="2lCTwFAhln7CDwlXWDaY-61" value="" style="group" parent="1" connectable="0" vertex="1">
          <mxGeometry x="-613" y="-448" width="70" height="15" as="geometry" />
        </mxCell>
        <mxCell id="2lCTwFAhln7CDwlXWDaY-55" value="&lt;b&gt;&lt;font style=&quot;font-size: 10px;&quot;&gt;妖怪の樹海&lt;/font&gt;&lt;/b&gt;" style="text;html=1;strokeColor=none;fillColor=none;align=center;verticalAlign=middle;whiteSpace=wrap;rounded=0;fontSize=11;fontFamily=Helvetica;fontColor=default;" parent="2lCTwFAhln7CDwlXWDaY-61" vertex="1">
          <mxGeometry x="-10" y="-2.5" width="65" height="15" as="geometry" />
        </mxCell>
        <mxCell id="2lCTwFAhln7CDwlXWDaY-56" value="" style="ellipse;whiteSpace=wrap;html=1;aspect=fixed;" parent="2lCTwFAhln7CDwlXWDaY-61" vertex="1">
          <mxGeometry x="60" width="10" height="10" as="geometry" />
        </mxCell>
        <mxCell id="2lCTwFAhln7CDwlXWDaY-68" value="" style="group" parent="1" connectable="0" vertex="1">
          <mxGeometry x="-583" y="-508" width="40" height="15" as="geometry" />
        </mxCell>
        <mxCell id="2lCTwFAhln7CDwlXWDaY-64" value="" style="ellipse;whiteSpace=wrap;html=1;aspect=fixed;" parent="2lCTwFAhln7CDwlXWDaY-68" vertex="1">
          <mxGeometry x="30" y="2.5" width="10" height="10" as="geometry" />
        </mxCell>
        <mxCell id="2lCTwFAhln7CDwlXWDaY-65" value="&lt;b style=&quot;&quot;&gt;&lt;font style=&quot;font-size: 10px;&quot;&gt;草田&lt;/font&gt;&lt;/b&gt;" style="text;html=1;strokeColor=none;fillColor=none;align=center;verticalAlign=middle;whiteSpace=wrap;rounded=0;fontSize=11;fontFamily=Helvetica;fontColor=default;" parent="2lCTwFAhln7CDwlXWDaY-68" vertex="1">
          <mxGeometry x="-5" width="30" height="15" as="geometry" />
        </mxCell>
        <mxCell id="2lCTwFAhln7CDwlXWDaY-71" value="&lt;font size=&quot;1&quot; color=&quot;#ffffff&quot;&gt;&lt;b style=&quot;font-size: 12px;&quot;&gt;博麗守矢ライン&lt;/b&gt;&lt;/font&gt;" style="rounded=1;whiteSpace=wrap;html=1;fontFamily=Helvetica;fontSize=11;fontColor=default;strokeColor=none;fillColor=#808080;opacity=90;" parent="1" vertex="1">
          <mxGeometry x="-318" y="-355" width="95" height="20" as="geometry" />
        </mxCell>
        <mxCell id="2lCTwFAhln7CDwlXWDaY-75" value="" style="group" parent="1" connectable="0" vertex="1">
          <mxGeometry x="-603" y="-562.5" width="60" height="15" as="geometry" />
        </mxCell>
        <mxCell id="2lCTwFAhln7CDwlXWDaY-66" value="" style="ellipse;whiteSpace=wrap;html=1;aspect=fixed;" parent="2lCTwFAhln7CDwlXWDaY-75" vertex="1">
          <mxGeometry x="50" y="2.5" width="10" height="10" as="geometry" />
        </mxCell>
        <mxCell id="2lCTwFAhln7CDwlXWDaY-67" value="&lt;b&gt;&lt;font style=&quot;font-size: 10px;&quot;&gt;守矢神社&lt;/font&gt;&lt;/b&gt;" style="text;html=1;strokeColor=none;fillColor=none;align=center;verticalAlign=middle;whiteSpace=wrap;rounded=0;fontSize=11;fontFamily=Helvetica;fontColor=default;" parent="2lCTwFAhln7CDwlXWDaY-75" vertex="1">
          <mxGeometry x="-5" width="50" height="15" as="geometry" />
        </mxCell>
        <mxCell id="2lCTwFAhln7CDwlXWDaY-79" value="" style="group" parent="1" connectable="0" vertex="1">
          <mxGeometry x="-477" y="-581" width="55" height="25" as="geometry" />
        </mxCell>
        <mxCell id="2lCTwFAhln7CDwlXWDaY-78" value="&lt;b&gt;&lt;font style=&quot;font-size: 10px;&quot;&gt;玄武の沢&lt;/font&gt;&lt;/b&gt;" style="text;html=1;strokeColor=none;fillColor=none;align=center;verticalAlign=middle;whiteSpace=wrap;rounded=0;fontSize=11;fontFamily=Helvetica;fontColor=default;" parent="2lCTwFAhln7CDwlXWDaY-79" vertex="1">
          <mxGeometry x="10" y="-8" width="50" height="15" as="geometry" />
        </mxCell>
        <mxCell id="2lCTwFAhln7CDwlXWDaY-80" value="" style="group" parent="1" connectable="0" vertex="1">
          <mxGeometry x="-578" y="-605" width="55" height="25" as="geometry" />
        </mxCell>
        <mxCell id="2lCTwFAhln7CDwlXWDaY-73" value="" style="ellipse;whiteSpace=wrap;html=1;aspect=fixed;" parent="2lCTwFAhln7CDwlXWDaY-80" vertex="1">
          <mxGeometry x="45" y="15" width="10" height="10" as="geometry" />
        </mxCell>
        <mxCell id="2lCTwFAhln7CDwlXWDaY-74" value="&lt;span style=&quot;font-size: 10px;&quot;&gt;&lt;b&gt;風神の湖&lt;/b&gt;&lt;/span&gt;" style="text;html=1;strokeColor=none;fillColor=none;align=center;verticalAlign=middle;whiteSpace=wrap;rounded=0;fontSize=11;fontFamily=Helvetica;fontColor=default;" parent="2lCTwFAhln7CDwlXWDaY-80" vertex="1">
          <mxGeometry x="-5" width="50" height="15" as="geometry" />
        </mxCell>
        <mxCell id="2lCTwFAhln7CDwlXWDaY-90" value="" style="ellipse;whiteSpace=wrap;html=1;aspect=fixed;" parent="1" vertex="1">
          <mxGeometry x="-358" y="-557" width="10" height="10" as="geometry" />
        </mxCell>
        <mxCell id="2lCTwFAhln7CDwlXWDaY-92" value="" style="ellipse;whiteSpace=wrap;html=1;aspect=fixed;" parent="1" vertex="1">
          <mxGeometry x="-198" y="-480" width="10" height="10" as="geometry" />
        </mxCell>
        <mxCell id="2lCTwFAhln7CDwlXWDaY-104" value="" style="group" parent="1" connectable="0" vertex="1">
          <mxGeometry x="-138" y="-600" width="16" height="16" as="geometry" />
        </mxCell>
        <mxCell id="2lCTwFAhln7CDwlXWDaY-99" value="" style="endArrow=none;html=1;rounded=1;labelBackgroundColor=default;strokeColor=#FFFFFF;strokeWidth=1;fontFamily=Helvetica;fontSize=11;fontColor=default;startSize=0;endSize=0;shape=connector;" parent="2lCTwFAhln7CDwlXWDaY-104" edge="1">
          <mxGeometry width="50" height="50" relative="1" as="geometry">
            <mxPoint x="4" y="2" as="sourcePoint" />
            <mxPoint x="14" y="12" as="targetPoint" />
          </mxGeometry>
        </mxCell>
        <mxCell id="2lCTwFAhln7CDwlXWDaY-100" value="" style="endArrow=none;html=1;rounded=1;labelBackgroundColor=default;strokeColor=#FFFFFF;strokeWidth=1;fontFamily=Helvetica;fontSize=11;fontColor=default;startSize=0;endSize=0;shape=connector;" parent="2lCTwFAhln7CDwlXWDaY-104" edge="1">
          <mxGeometry width="50" height="50" relative="1" as="geometry">
            <mxPoint y="6" as="sourcePoint" />
            <mxPoint x="10" y="16" as="targetPoint" />
          </mxGeometry>
        </mxCell>
        <mxCell id="2lCTwFAhln7CDwlXWDaY-102" value="" style="endArrow=none;html=1;rounded=1;labelBackgroundColor=default;strokeColor=#FFFFFF;strokeWidth=1;fontFamily=Helvetica;fontSize=11;fontColor=default;startSize=0;endSize=0;shape=connector;" parent="2lCTwFAhln7CDwlXWDaY-104" edge="1">
          <mxGeometry width="50" height="50" relative="1" as="geometry">
            <mxPoint x="2" y="4" as="sourcePoint" />
            <mxPoint x="12" y="14" as="targetPoint" />
          </mxGeometry>
        </mxCell>
        <mxCell id="2lCTwFAhln7CDwlXWDaY-103" value="" style="endArrow=none;html=1;rounded=1;labelBackgroundColor=default;strokeColor=#FFFFFF;strokeWidth=1;fontFamily=Helvetica;fontSize=11;fontColor=default;startSize=0;endSize=0;shape=connector;" parent="2lCTwFAhln7CDwlXWDaY-104" edge="1">
          <mxGeometry width="50" height="50" relative="1" as="geometry">
            <mxPoint x="6" as="sourcePoint" />
            <mxPoint x="16" y="10" as="targetPoint" />
          </mxGeometry>
        </mxCell>
        <mxCell id="2lCTwFAhln7CDwlXWDaY-109" value="" style="group" parent="1" connectable="0" vertex="1">
          <mxGeometry x="-238" y="-442.5" width="50" height="15" as="geometry" />
        </mxCell>
        <mxCell id="2lCTwFAhln7CDwlXWDaY-93" value="" style="ellipse;whiteSpace=wrap;html=1;aspect=fixed;" parent="2lCTwFAhln7CDwlXWDaY-109" vertex="1">
          <mxGeometry x="40" y="2.5" width="10" height="10" as="geometry" />
        </mxCell>
        <mxCell id="2lCTwFAhln7CDwlXWDaY-108" value="&lt;span style=&quot;font-size: 10px;&quot;&gt;&lt;b&gt;北博麗&lt;/b&gt;&lt;/span&gt;" style="text;html=1;strokeColor=none;fillColor=none;align=center;verticalAlign=middle;whiteSpace=wrap;rounded=0;fontSize=11;fontFamily=Helvetica;fontColor=default;" parent="2lCTwFAhln7CDwlXWDaY-109" vertex="1">
          <mxGeometry x="-5" width="40" height="15" as="geometry" />
        </mxCell>
        <mxCell id="2lCTwFAhln7CDwlXWDaY-110" value="&lt;b&gt;&lt;font style=&quot;font-size: 10px;&quot;&gt;上霧の湖&lt;/font&gt;&lt;/b&gt;" style="text;html=1;strokeColor=none;fillColor=none;align=center;verticalAlign=middle;whiteSpace=wrap;rounded=0;fontSize=11;fontFamily=Helvetica;fontColor=default;" parent="1" vertex="1">
          <mxGeometry x="-253" y="-482.5" width="50" height="15" as="geometry" />
        </mxCell>
        <mxCell id="2lCTwFAhln7CDwlXWDaY-111" value="&lt;b&gt;&lt;font style=&quot;font-size: 10px;&quot;&gt;霧の湖&lt;/font&gt;&lt;/b&gt;" style="text;html=1;strokeColor=none;fillColor=none;align=center;verticalAlign=middle;whiteSpace=wrap;rounded=0;fontSize=11;fontFamily=Helvetica;fontColor=default;" parent="1" vertex="1">
          <mxGeometry x="-298" y="-530" width="37.5" height="15" as="geometry" />
        </mxCell>
        <mxCell id="2lCTwFAhln7CDwlXWDaY-112" value="&lt;span style=&quot;font-size: 10px;&quot;&gt;&lt;b&gt;魔法の森&lt;/b&gt;&lt;/span&gt;" style="text;html=1;strokeColor=none;fillColor=none;align=center;verticalAlign=middle;whiteSpace=wrap;rounded=0;fontSize=11;fontFamily=Helvetica;fontColor=default;" parent="1" vertex="1">
          <mxGeometry x="-378" y="-515" width="50" height="15" as="geometry" />
        </mxCell>
        <mxCell id="2lCTwFAhln7CDwlXWDaY-113" value="&lt;b&gt;&lt;font style=&quot;font-size: 10px;&quot;&gt;香霖堂前&lt;/font&gt;&lt;/b&gt;" style="text;html=1;strokeColor=none;fillColor=none;align=center;verticalAlign=middle;whiteSpace=wrap;rounded=0;fontSize=11;fontFamily=Helvetica;fontColor=default;" parent="1" vertex="1">
          <mxGeometry x="-408" y="-547" width="50" height="15" as="geometry" />
        </mxCell>
        <mxCell id="2lCTwFAhln7CDwlXWDaY-117" value="&lt;font size=&quot;1&quot; color=&quot;#ffffff&quot;&gt;&lt;b style=&quot;font-size: 12px;&quot;&gt;湖東&lt;/b&gt;&lt;/font&gt;&lt;font size=&quot;1&quot; color=&quot;#ffffff&quot;&gt;&lt;b style=&quot;font-size: 12px;&quot;&gt;線&lt;/b&gt;&lt;/font&gt;" style="rounded=1;whiteSpace=wrap;html=1;fontFamily=Helvetica;fontSize=11;fontColor=default;strokeColor=none;fillColor=#66B2FF;opacity=90;" parent="1" vertex="1">
          <mxGeometry x="-253" y="-580" width="45" height="20" as="geometry" />
        </mxCell>
        <mxCell id="LhJ2MKZEmk0QEzE14GEJ-1" value="" style="group" parent="1" connectable="0" vertex="1">
          <mxGeometry x="-323" y="-385" width="70" height="25" as="geometry" />
        </mxCell>
        <mxCell id="LhJ2MKZEmk0QEzE14GEJ-3" value="&lt;span style=&quot;font-size: 10px;&quot;&gt;&lt;b&gt;獣道&lt;/b&gt;&lt;/span&gt;" style="text;html=1;strokeColor=none;fillColor=none;align=center;verticalAlign=middle;whiteSpace=wrap;rounded=0;fontSize=11;fontFamily=Helvetica;fontColor=default;" parent="1" vertex="1">
          <mxGeometry x="-260.11" y="-390" width="64.23" height="15" as="geometry" />
        </mxCell>
        <mxCell id="LhJ2MKZEmk0QEzE14GEJ-2" value="" style="ellipse;whiteSpace=wrap;html=1;aspect=fixed;" parent="1" vertex="1">
          <mxGeometry x="-232.9992307692308" y="-370" width="10" height="10" as="geometry" />
        </mxCell>
        <mxCell id="LhJ2MKZEmk0QEzE14GEJ-15" value="" style="ellipse;whiteSpace=wrap;html=1;aspect=fixed;" parent="1" vertex="1">
          <mxGeometry x="-292.9992307692308" y="-370" width="10" height="10" as="geometry" />
        </mxCell>
        <mxCell id="LhJ2MKZEmk0QEzE14GEJ-18" value="&lt;span style=&quot;font-size: 10px;&quot;&gt;&lt;b&gt;きりさめ新都心&lt;/b&gt;&lt;/span&gt;" style="text;html=1;strokeColor=none;fillColor=none;align=center;verticalAlign=middle;whiteSpace=wrap;rounded=0;fontSize=11;fontFamily=Helvetica;fontColor=default;" parent="1" vertex="1">
          <mxGeometry x="-320.11" y="-390" width="72.11" height="15" as="geometry" />
        </mxCell>
        <mxCell id="Ria-s_h3xSO_SLDeOQL_-1" value="" style="ellipse;whiteSpace=wrap;html=1;aspect=fixed;" parent="1" vertex="1">
          <mxGeometry x="-198" y="-550" width="10" height="10" as="geometry" />
        </mxCell>
        <mxCell id="Ria-s_h3xSO_SLDeOQL_-3" value="&lt;span style=&quot;font-size: 10px;&quot;&gt;&lt;b&gt;ヴワル&lt;/b&gt;&lt;/span&gt;" style="text;html=1;strokeColor=none;fillColor=none;align=center;verticalAlign=middle;whiteSpace=wrap;rounded=0;fontSize=11;fontFamily=Helvetica;fontColor=default;" parent="1" vertex="1">
          <mxGeometry x="-238" y="-552.5" width="37.5" height="15" as="geometry" />
        </mxCell>
        <mxCell id="Ria-s_h3xSO_SLDeOQL_-8" value="" style="ellipse;whiteSpace=wrap;html=1;aspect=fixed;" parent="1" vertex="1">
          <mxGeometry x="-213" y="-620" width="10" height="10" as="geometry" />
        </mxCell>
        <mxCell id="Ria-s_h3xSO_SLDeOQL_-15" value="&lt;b&gt;&lt;font style=&quot;font-size: 10px;&quot;&gt;霧の湖浜&lt;/font&gt;&lt;/b&gt;" style="text;html=1;strokeColor=none;fillColor=none;align=center;verticalAlign=middle;whiteSpace=wrap;rounded=0;fontSize=11;fontFamily=Helvetica;fontColor=default;" parent="1" vertex="1">
          <mxGeometry x="-253" y="-610" width="50" height="15" as="geometry" />
        </mxCell>
        <mxCell id="Ria-s_h3xSO_SLDeOQL_-16" value="&lt;b&gt;&lt;font style=&quot;font-size: 10px;&quot;&gt;再思の道&lt;/font&gt;&lt;/b&gt;" style="text;html=1;strokeColor=none;fillColor=none;align=center;verticalAlign=middle;whiteSpace=wrap;rounded=0;fontSize=11;fontFamily=Helvetica;fontColor=default;" parent="1" vertex="1">
          <mxGeometry x="-273" y="-630" width="50" height="15" as="geometry" />
        </mxCell>
        <mxCell id="Ria-s_h3xSO_SLDeOQL_-24" value="" style="endArrow=none;html=1;rounded=1;labelBackgroundColor=default;strokeColor=#FF0000;strokeWidth=6;fontFamily=Helvetica;fontSize=11;fontColor=default;startSize=0;endSize=0;shape=connector;entryX=0.041;entryY=0.502;entryDx=0;entryDy=0;entryPerimeter=0;" parent="1" target="2lCTwFAhln7CDwlXWDaY-84" edge="1">
          <mxGeometry width="50" height="50" relative="1" as="geometry">
            <mxPoint x="-298" y="-505" as="sourcePoint" />
            <mxPoint x="-266" y="-505" as="targetPoint" />
            <Array as="points" />
          </mxGeometry>
        </mxCell>
        <mxCell id="2lCTwFAhln7CDwlXWDaY-84" value="" style="ellipse;whiteSpace=wrap;html=1;aspect=fixed;" parent="1" vertex="1">
          <mxGeometry x="-283" y="-510" width="10" height="10" as="geometry" />
        </mxCell>
        <mxCell id="Rw5dygfvGm5HHu7KgE6S-1" value="" style="ellipse;whiteSpace=wrap;html=1;aspect=fixed;" parent="1" vertex="1">
          <mxGeometry x="-293" y="-700" width="10" height="10" as="geometry" />
        </mxCell>
        <mxCell id="Rw5dygfvGm5HHu7KgE6S-4" value="" style="ellipse;whiteSpace=wrap;html=1;aspect=fixed;" parent="1" vertex="1">
          <mxGeometry x="-333" y="-720" width="10" height="10" as="geometry" />
        </mxCell>
        <mxCell id="Rw5dygfvGm5HHu7KgE6S-6" value="" style="ellipse;whiteSpace=wrap;html=1;aspect=fixed;" parent="1" vertex="1">
          <mxGeometry x="-353" y="-800" width="10" height="10" as="geometry" />
        </mxCell>
        <mxCell id="Rw5dygfvGm5HHu7KgE6S-10" value="" style="ellipse;whiteSpace=wrap;html=1;aspect=fixed;" parent="1" vertex="1">
          <mxGeometry x="-413" y="-720" width="10" height="10" as="geometry" />
        </mxCell>
        <mxCell id="Rw5dygfvGm5HHu7KgE6S-11" value="" style="ellipse;whiteSpace=wrap;html=1;aspect=fixed;" parent="1" vertex="1">
          <mxGeometry x="-473" y="-800" width="10" height="10" as="geometry" />
        </mxCell>
        <mxCell id="Rw5dygfvGm5HHu7KgE6S-12" value="" style="ellipse;whiteSpace=wrap;html=1;aspect=fixed;" parent="1" vertex="1">
          <mxGeometry x="-453" y="-720" width="10" height="10" as="geometry" />
        </mxCell>
        <mxCell id="Rw5dygfvGm5HHu7KgE6S-13" value="" style="ellipse;whiteSpace=wrap;html=1;aspect=fixed;" parent="1" vertex="1">
          <mxGeometry x="-533" y="-800" width="10" height="10" as="geometry" />
        </mxCell>
        <mxCell id="Rw5dygfvGm5HHu7KgE6S-14" value="" style="ellipse;whiteSpace=wrap;html=1;aspect=fixed;" parent="1" vertex="1">
          <mxGeometry x="-493" y="-720" width="10" height="10" as="geometry" />
        </mxCell>
        <mxCell id="Rw5dygfvGm5HHu7KgE6S-15" value="" style="ellipse;whiteSpace=wrap;html=1;aspect=fixed;" parent="1" vertex="1">
          <mxGeometry x="-553" y="-780" width="10" height="10" as="geometry" />
        </mxCell>
        <mxCell id="Rw5dygfvGm5HHu7KgE6S-16" value="" style="ellipse;whiteSpace=wrap;html=1;aspect=fixed;" parent="1" vertex="1">
          <mxGeometry x="-533" y="-720" width="10" height="10" as="geometry" />
        </mxCell>
        <mxCell id="Rw5dygfvGm5HHu7KgE6S-17" value="" style="ellipse;whiteSpace=wrap;html=1;aspect=fixed;" parent="1" vertex="1">
          <mxGeometry x="-253" y="-840" width="10" height="10" as="geometry" />
        </mxCell>
        <mxCell id="Rw5dygfvGm5HHu7KgE6S-18" value="" style="ellipse;whiteSpace=wrap;html=1;aspect=fixed;" parent="1" vertex="1">
          <mxGeometry x="-293" y="-800" width="10" height="10" as="geometry" />
        </mxCell>
        <mxCell id="Rw5dygfvGm5HHu7KgE6S-25" value="" style="ellipse;whiteSpace=wrap;html=1;aspect=fixed;" parent="1" vertex="1">
          <mxGeometry x="-253" y="-921" width="10" height="10" as="geometry" />
        </mxCell>
        <mxCell id="Rw5dygfvGm5HHu7KgE6S-26" value="" style="ellipse;whiteSpace=wrap;html=1;aspect=fixed;" parent="1" vertex="1">
          <mxGeometry x="-265.5" y="-947.5" width="10" height="10" as="geometry" />
        </mxCell>
        <mxCell id="Rw5dygfvGm5HHu7KgE6S-27" value="" style="ellipse;whiteSpace=wrap;html=1;aspect=fixed;" parent="1" vertex="1">
          <mxGeometry x="-293" y="-960" width="10" height="10" as="geometry" />
        </mxCell>
        <mxCell id="Rw5dygfvGm5HHu7KgE6S-28" value="" style="ellipse;whiteSpace=wrap;html=1;aspect=fixed;" parent="1" vertex="1">
          <mxGeometry x="-333" y="-960" width="10" height="10" as="geometry" />
        </mxCell>
        <mxCell id="Rw5dygfvGm5HHu7KgE6S-29" value="" style="ellipse;whiteSpace=wrap;html=1;aspect=fixed;" parent="1" vertex="1">
          <mxGeometry x="-373" y="-960" width="10" height="10" as="geometry" />
        </mxCell>
        <mxCell id="Rw5dygfvGm5HHu7KgE6S-30" value="" style="ellipse;whiteSpace=wrap;html=1;aspect=fixed;" parent="1" vertex="1">
          <mxGeometry x="-413" y="-960" width="10" height="10" as="geometry" />
        </mxCell>
        <mxCell id="Rw5dygfvGm5HHu7KgE6S-31" value="" style="ellipse;whiteSpace=wrap;html=1;aspect=fixed;" parent="1" vertex="1">
          <mxGeometry x="-453" y="-960" width="10" height="10" as="geometry" />
        </mxCell>
        <mxCell id="Rw5dygfvGm5HHu7KgE6S-32" value="" style="ellipse;whiteSpace=wrap;html=1;aspect=fixed;" parent="1" vertex="1">
          <mxGeometry x="-493" y="-960" width="10" height="10" as="geometry" />
        </mxCell>
        <mxCell id="Rw5dygfvGm5HHu7KgE6S-33" value="" style="ellipse;whiteSpace=wrap;html=1;aspect=fixed;" parent="1" vertex="1">
          <mxGeometry x="-533" y="-960" width="10" height="10" as="geometry" />
        </mxCell>
        <mxCell id="Rw5dygfvGm5HHu7KgE6S-34" value="" style="ellipse;whiteSpace=wrap;html=1;aspect=fixed;" parent="1" vertex="1">
          <mxGeometry x="-553" y="-980" width="10" height="10" as="geometry" />
        </mxCell>
        <mxCell id="Rw5dygfvGm5HHu7KgE6S-35" value="" style="ellipse;whiteSpace=wrap;html=1;aspect=fixed;" parent="1" vertex="1">
          <mxGeometry x="-533" y="-1000" width="10" height="10" as="geometry" />
        </mxCell>
        <mxCell id="Rw5dygfvGm5HHu7KgE6S-36" value="" style="ellipse;whiteSpace=wrap;html=1;aspect=fixed;" parent="1" vertex="1">
          <mxGeometry x="-513" y="-1020" width="10" height="10" as="geometry" />
        </mxCell>
        <mxCell id="Rw5dygfvGm5HHu7KgE6S-37" value="" style="ellipse;whiteSpace=wrap;html=1;aspect=fixed;" parent="1" vertex="1">
          <mxGeometry x="-518" y="-1045" width="10" height="10" as="geometry" />
        </mxCell>
        <mxCell id="Rw5dygfvGm5HHu7KgE6S-38" value="" style="ellipse;whiteSpace=wrap;html=1;aspect=fixed;" parent="1" vertex="1">
          <mxGeometry x="-533" y="-1060" width="10" height="10" as="geometry" />
        </mxCell>
        <mxCell id="Rw5dygfvGm5HHu7KgE6S-39" value="" style="ellipse;whiteSpace=wrap;html=1;aspect=fixed;" parent="1" vertex="1">
          <mxGeometry x="-553" y="-1095" width="10" height="10" as="geometry" />
        </mxCell>
        <mxCell id="Rw5dygfvGm5HHu7KgE6S-40" value="" style="ellipse;whiteSpace=wrap;html=1;aspect=fixed;" parent="1" vertex="1">
          <mxGeometry x="-563" y="-1150" width="10" height="10" as="geometry" />
        </mxCell>
        <mxCell id="Rw5dygfvGm5HHu7KgE6S-44" value="" style="ellipse;whiteSpace=wrap;html=1;aspect=fixed;" parent="1" vertex="1">
          <mxGeometry x="-573" y="-1180" width="10" height="10" as="geometry" />
        </mxCell>
        <mxCell id="Rw5dygfvGm5HHu7KgE6S-45" value="" style="ellipse;whiteSpace=wrap;html=1;aspect=fixed;" parent="1" vertex="1">
          <mxGeometry x="-553" y="-1200" width="10" height="10" as="geometry" />
        </mxCell>
        <mxCell id="Rw5dygfvGm5HHu7KgE6S-46" value="" style="ellipse;whiteSpace=wrap;html=1;aspect=fixed;" parent="1" vertex="1">
          <mxGeometry x="-513" y="-1200" width="10" height="10" as="geometry" />
        </mxCell>
        <mxCell id="Rw5dygfvGm5HHu7KgE6S-47" value="" style="ellipse;whiteSpace=wrap;html=1;aspect=fixed;" parent="1" vertex="1">
          <mxGeometry x="-493" y="-1220" width="10" height="10" as="geometry" />
        </mxCell>
        <mxCell id="Rw5dygfvGm5HHu7KgE6S-48" value="" style="ellipse;whiteSpace=wrap;html=1;aspect=fixed;" parent="1" vertex="1">
          <mxGeometry x="-513" y="-1240" width="10" height="10" as="geometry" />
        </mxCell>
        <mxCell id="Rw5dygfvGm5HHu7KgE6S-52" value="" style="ellipse;whiteSpace=wrap;html=1;aspect=fixed;" parent="1" vertex="1">
          <mxGeometry x="-543" y="-1240" width="10" height="10" as="geometry" />
        </mxCell>
        <mxCell id="Rw5dygfvGm5HHu7KgE6S-53" value="" style="ellipse;whiteSpace=wrap;html=1;aspect=fixed;" parent="1" vertex="1">
          <mxGeometry x="-573" y="-1240" width="10" height="10" as="geometry" />
        </mxCell>
        <mxCell id="Rw5dygfvGm5HHu7KgE6S-54" value="" style="ellipse;whiteSpace=wrap;html=1;aspect=fixed;" parent="1" vertex="1">
          <mxGeometry x="-593" y="-1260" width="10" height="10" as="geometry" />
        </mxCell>
        <mxCell id="Rw5dygfvGm5HHu7KgE6S-55" value="" style="ellipse;whiteSpace=wrap;html=1;aspect=fixed;" parent="1" vertex="1">
          <mxGeometry x="-593" y="-1280" width="10" height="10" as="geometry" />
        </mxCell>
        <mxCell id="Rw5dygfvGm5HHu7KgE6S-56" value="" style="ellipse;whiteSpace=wrap;html=1;aspect=fixed;" parent="1" vertex="1">
          <mxGeometry x="-593" y="-1300" width="10" height="10" as="geometry" />
        </mxCell>
        <mxCell id="Rw5dygfvGm5HHu7KgE6S-57" value="" style="ellipse;whiteSpace=wrap;html=1;aspect=fixed;" parent="1" vertex="1">
          <mxGeometry x="-593" y="-1320" width="10" height="10" as="geometry" />
        </mxCell>
        <mxCell id="Rw5dygfvGm5HHu7KgE6S-58" value="" style="ellipse;whiteSpace=wrap;html=1;aspect=fixed;" parent="1" vertex="1">
          <mxGeometry x="-573" y="-1340" width="10" height="10" as="geometry" />
        </mxCell>
        <mxCell id="Rw5dygfvGm5HHu7KgE6S-59" value="" style="ellipse;whiteSpace=wrap;html=1;aspect=fixed;" parent="1" vertex="1">
          <mxGeometry x="-553" y="-1360" width="10" height="10" as="geometry" />
        </mxCell>
        <mxCell id="Rw5dygfvGm5HHu7KgE6S-60" value="" style="ellipse;whiteSpace=wrap;html=1;aspect=fixed;" parent="1" vertex="1">
          <mxGeometry x="-553" y="-1400" width="10" height="10" as="geometry" />
        </mxCell>
        <mxCell id="Rw5dygfvGm5HHu7KgE6S-62" value="&lt;b&gt;&lt;font style=&quot;font-size: 10px;&quot;&gt;山前大川&lt;/font&gt;&lt;/b&gt;" style="text;html=1;strokeColor=none;fillColor=none;align=center;verticalAlign=middle;whiteSpace=wrap;rounded=0;fontSize=11;fontFamily=Helvetica;fontColor=default;" parent="1" vertex="1">
          <mxGeometry x="-284" y="-703.5" width="50" height="15" as="geometry" />
        </mxCell>
        <mxCell id="Rw5dygfvGm5HHu7KgE6S-63" value="&lt;font style=&quot;font-size: 10px;&quot;&gt;&lt;b&gt;八坂&lt;/b&gt;&lt;/font&gt;" style="text;html=1;strokeColor=none;fillColor=none;align=center;verticalAlign=middle;whiteSpace=wrap;rounded=0;fontSize=11;fontFamily=Helvetica;fontColor=default;" parent="1" vertex="1">
          <mxGeometry x="-353" y="-710" width="50" height="15" as="geometry" />
        </mxCell>
        <mxCell id="Rw5dygfvGm5HHu7KgE6S-64" value="&lt;b&gt;&lt;font style=&quot;font-size: 10px;&quot;&gt;河城&lt;/font&gt;&lt;/b&gt;" style="text;html=1;strokeColor=none;fillColor=none;align=center;verticalAlign=middle;whiteSpace=wrap;rounded=0;fontSize=11;fontFamily=Helvetica;fontColor=default;" parent="1" vertex="1">
          <mxGeometry x="-393" y="-710" width="50" height="15" as="geometry" />
        </mxCell>
        <mxCell id="Rw5dygfvGm5HHu7KgE6S-65" value="&lt;b&gt;&lt;font style=&quot;font-size: 10px;&quot;&gt;北河城&lt;/font&gt;&lt;/b&gt;" style="text;html=1;strokeColor=none;fillColor=none;align=center;verticalAlign=middle;whiteSpace=wrap;rounded=0;fontSize=11;fontFamily=Helvetica;fontColor=default;" parent="1" vertex="1">
          <mxGeometry x="-433" y="-710" width="50" height="15" as="geometry" />
        </mxCell>
        <mxCell id="Rw5dygfvGm5HHu7KgE6S-66" value="&lt;b&gt;&lt;font style=&quot;font-size: 10px;&quot;&gt;中寧&lt;/font&gt;&lt;/b&gt;" style="text;html=1;strokeColor=none;fillColor=none;align=center;verticalAlign=middle;whiteSpace=wrap;rounded=0;fontSize=11;fontFamily=Helvetica;fontColor=default;" parent="1" vertex="1">
          <mxGeometry x="-473" y="-710" width="50" height="15" as="geometry" />
        </mxCell>
        <mxCell id="Rw5dygfvGm5HHu7KgE6S-67" value="&lt;font style=&quot;font-size: 10px;&quot;&gt;&lt;b&gt;山前下田&lt;/b&gt;&lt;/font&gt;" style="text;html=1;strokeColor=none;fillColor=none;align=center;verticalAlign=middle;whiteSpace=wrap;rounded=0;fontSize=11;fontFamily=Helvetica;fontColor=default;" parent="1" vertex="1">
          <mxGeometry x="-513" y="-710" width="50" height="15" as="geometry" />
        </mxCell>
        <mxCell id="Rw5dygfvGm5HHu7KgE6S-68" value="&lt;b&gt;&lt;font style=&quot;font-size: 10px;&quot;&gt;東文&lt;/font&gt;&lt;/b&gt;" style="text;html=1;strokeColor=none;fillColor=none;align=center;verticalAlign=middle;whiteSpace=wrap;rounded=0;fontSize=11;fontFamily=Helvetica;fontColor=default;" parent="1" vertex="1">
          <mxGeometry x="-553" y="-710" width="50" height="15" as="geometry" />
        </mxCell>
        <mxCell id="Rw5dygfvGm5HHu7KgE6S-69" value="&lt;b&gt;&lt;font style=&quot;font-size: 10px;&quot;&gt;文&lt;/font&gt;&lt;/b&gt;" style="text;html=1;strokeColor=none;fillColor=none;align=center;verticalAlign=middle;whiteSpace=wrap;rounded=0;fontSize=11;fontFamily=Helvetica;fontColor=default;" parent="1" vertex="1">
          <mxGeometry x="-573" y="-750" width="15" height="15" as="geometry" />
        </mxCell>
        <mxCell id="Rw5dygfvGm5HHu7KgE6S-70" value="&lt;b&gt;&lt;font style=&quot;font-size: 10px;&quot;&gt;二ノ森&lt;/font&gt;&lt;/b&gt;" style="text;html=1;strokeColor=none;fillColor=none;align=center;verticalAlign=middle;whiteSpace=wrap;rounded=0;fontSize=11;fontFamily=Helvetica;fontColor=default;" parent="1" vertex="1">
          <mxGeometry x="-598" y="-782.5" width="50" height="15" as="geometry" />
        </mxCell>
        <mxCell id="Rw5dygfvGm5HHu7KgE6S-71" value="&lt;b&gt;&lt;font style=&quot;font-size: 10px;&quot;&gt;雨滝&lt;/font&gt;&lt;/b&gt;" style="text;html=1;strokeColor=none;fillColor=none;align=center;verticalAlign=middle;whiteSpace=wrap;rounded=0;fontSize=11;fontFamily=Helvetica;fontColor=default;" parent="1" vertex="1">
          <mxGeometry x="-553" y="-815" width="50" height="15" as="geometry" />
        </mxCell>
        <mxCell id="Rw5dygfvGm5HHu7KgE6S-72" value="&lt;b&gt;&lt;font style=&quot;font-size: 10px;&quot;&gt;静葉&lt;/font&gt;&lt;/b&gt;" style="text;html=1;strokeColor=none;fillColor=none;align=center;verticalAlign=middle;whiteSpace=wrap;rounded=0;fontSize=11;fontFamily=Helvetica;fontColor=default;" parent="1" vertex="1">
          <mxGeometry x="-493" y="-815" width="50" height="15" as="geometry" />
        </mxCell>
        <mxCell id="Rw5dygfvGm5HHu7KgE6S-73" value="&lt;span style=&quot;font-size: 10px;&quot;&gt;&lt;b&gt;もみじ山&lt;/b&gt;&lt;/span&gt;" style="text;html=1;strokeColor=none;fillColor=none;align=center;verticalAlign=middle;whiteSpace=wrap;rounded=0;fontSize=11;fontFamily=Helvetica;fontColor=default;" parent="1" vertex="1">
          <mxGeometry x="-433" y="-815" width="50" height="15" as="geometry" />
        </mxCell>
        <mxCell id="Rw5dygfvGm5HHu7KgE6S-74" value="&lt;font style=&quot;font-size: 10px;&quot;&gt;&lt;b&gt;紫ヶ岡&lt;/b&gt;&lt;/font&gt;" style="text;html=1;strokeColor=none;fillColor=none;align=center;verticalAlign=middle;whiteSpace=wrap;rounded=0;fontSize=11;fontFamily=Helvetica;fontColor=default;" parent="1" vertex="1">
          <mxGeometry x="-373" y="-815" width="50" height="15" as="geometry" />
        </mxCell>
        <mxCell id="Rw5dygfvGm5HHu7KgE6S-75" value="&lt;font style=&quot;font-size: 10px;&quot;&gt;&lt;b&gt;日橋&lt;/b&gt;&lt;/font&gt;" style="text;html=1;strokeColor=none;fillColor=none;align=center;verticalAlign=middle;whiteSpace=wrap;rounded=0;fontSize=11;fontFamily=Helvetica;fontColor=default;" parent="1" vertex="1">
          <mxGeometry x="-313" y="-815" width="50" height="15" as="geometry" />
        </mxCell>
        <mxCell id="Rw5dygfvGm5HHu7KgE6S-76" value="&lt;b&gt;&lt;font style=&quot;font-size: 10px;&quot;&gt;南八雲&lt;/font&gt;&lt;/b&gt;" style="text;html=1;strokeColor=none;fillColor=none;align=center;verticalAlign=middle;whiteSpace=wrap;rounded=0;fontSize=11;fontFamily=Helvetica;fontColor=default;" parent="1" vertex="1">
          <mxGeometry x="-288" y="-842.5" width="35" height="15" as="geometry" />
        </mxCell>
        <mxCell id="Rw5dygfvGm5HHu7KgE6S-77" value="&lt;b&gt;&lt;font style=&quot;font-size: 10px;&quot;&gt;山後大野&lt;/font&gt;&lt;/b&gt;" style="text;html=1;strokeColor=none;fillColor=none;align=center;verticalAlign=middle;whiteSpace=wrap;rounded=0;fontSize=11;fontFamily=Helvetica;fontColor=default;" parent="1" vertex="1">
          <mxGeometry x="-243.88" y="-924.5" width="50" height="15" as="geometry" />
        </mxCell>
        <mxCell id="Rw5dygfvGm5HHu7KgE6S-78" value="&lt;b&gt;&lt;font style=&quot;font-size: 10px;&quot;&gt;堀川&lt;/font&gt;&lt;/b&gt;" style="text;html=1;strokeColor=none;fillColor=none;align=center;verticalAlign=middle;whiteSpace=wrap;rounded=0;fontSize=11;fontFamily=Helvetica;fontColor=default;" parent="1" vertex="1">
          <mxGeometry x="-269" y="-960.5" width="50" height="15" as="geometry" />
        </mxCell>
        <mxCell id="Rw5dygfvGm5HHu7KgE6S-79" value="&lt;b&gt;&lt;font style=&quot;font-size: 10px;&quot;&gt;山後池沼&lt;/font&gt;&lt;/b&gt;" style="text;html=1;strokeColor=none;fillColor=none;align=center;verticalAlign=middle;whiteSpace=wrap;rounded=0;fontSize=11;fontFamily=Helvetica;fontColor=default;" parent="1" vertex="1">
          <mxGeometry x="-313" y="-975" width="50" height="15" as="geometry" />
        </mxCell>
        <mxCell id="Rw5dygfvGm5HHu7KgE6S-80" value="&lt;b&gt;&lt;font style=&quot;font-size: 10px;&quot;&gt;八雲白岡&lt;/font&gt;&lt;/b&gt;" style="text;html=1;strokeColor=none;fillColor=none;align=center;verticalAlign=middle;whiteSpace=wrap;rounded=0;fontSize=11;fontFamily=Helvetica;fontColor=default;" parent="1" vertex="1">
          <mxGeometry x="-353" y="-950" width="50" height="15" as="geometry" />
        </mxCell>
        <mxCell id="Rw5dygfvGm5HHu7KgE6S-81" value="&lt;b&gt;&lt;font style=&quot;font-size: 10px;&quot;&gt;東風谷&lt;/font&gt;&lt;/b&gt;" style="text;html=1;strokeColor=none;fillColor=none;align=center;verticalAlign=middle;whiteSpace=wrap;rounded=0;fontSize=11;fontFamily=Helvetica;fontColor=default;" parent="1" vertex="1">
          <mxGeometry x="-393" y="-975" width="50" height="15" as="geometry" />
        </mxCell>
        <mxCell id="Rw5dygfvGm5HHu7KgE6S-82" value="&lt;b&gt;&lt;font style=&quot;font-size: 10px;&quot;&gt;風谷&lt;/font&gt;&lt;/b&gt;" style="text;html=1;strokeColor=none;fillColor=none;align=center;verticalAlign=middle;whiteSpace=wrap;rounded=0;fontSize=11;fontFamily=Helvetica;fontColor=default;" parent="1" vertex="1">
          <mxGeometry x="-433" y="-950" width="50" height="15" as="geometry" />
        </mxCell>
        <mxCell id="Rw5dygfvGm5HHu7KgE6S-83" value="&lt;b&gt;&lt;font style=&quot;font-size: 10px;&quot;&gt;山見&lt;/font&gt;&lt;/b&gt;" style="text;html=1;strokeColor=none;fillColor=none;align=center;verticalAlign=middle;whiteSpace=wrap;rounded=0;fontSize=11;fontFamily=Helvetica;fontColor=default;" parent="1" vertex="1">
          <mxGeometry x="-473" y="-975" width="50" height="15" as="geometry" />
        </mxCell>
        <mxCell id="Rw5dygfvGm5HHu7KgE6S-84" value="&lt;b&gt;&lt;font style=&quot;font-size: 10px;&quot;&gt;山後中川&lt;/font&gt;&lt;/b&gt;" style="text;html=1;strokeColor=none;fillColor=none;align=center;verticalAlign=middle;whiteSpace=wrap;rounded=0;fontSize=11;fontFamily=Helvetica;fontColor=default;" parent="1" vertex="1">
          <mxGeometry x="-513" y="-950" width="50" height="15" as="geometry" />
        </mxCell>
        <mxCell id="Rw5dygfvGm5HHu7KgE6S-85" value="&lt;b&gt;&lt;font style=&quot;font-size: 10px;&quot;&gt;恵川&lt;/font&gt;&lt;/b&gt;" style="text;html=1;strokeColor=none;fillColor=none;align=center;verticalAlign=middle;whiteSpace=wrap;rounded=0;fontSize=11;fontFamily=Helvetica;fontColor=default;" parent="1" vertex="1">
          <mxGeometry x="-553" y="-975" width="50" height="15" as="geometry" />
        </mxCell>
        <mxCell id="Rw5dygfvGm5HHu7KgE6S-86" value="&lt;b&gt;&lt;font style=&quot;font-size: 10px;&quot;&gt;小野塚&lt;/font&gt;&lt;/b&gt;" style="text;html=1;strokeColor=none;fillColor=none;align=center;verticalAlign=middle;whiteSpace=wrap;rounded=0;fontSize=11;fontFamily=Helvetica;fontColor=default;" parent="1" vertex="1">
          <mxGeometry x="-598" y="-982.5" width="50" height="15" as="geometry" />
        </mxCell>
        <mxCell id="Rw5dygfvGm5HHu7KgE6S-87" value="&lt;font style=&quot;font-size: 10px;&quot;&gt;&lt;b&gt;飯岡&lt;/b&gt;&lt;/font&gt;" style="text;html=1;strokeColor=none;fillColor=none;align=center;verticalAlign=middle;whiteSpace=wrap;rounded=0;fontSize=11;fontFamily=Helvetica;fontColor=default;" parent="1" vertex="1">
          <mxGeometry x="-553" y="-1015" width="50" height="15" as="geometry" />
        </mxCell>
        <mxCell id="Rw5dygfvGm5HHu7KgE6S-88" value="&lt;b&gt;&lt;font style=&quot;font-size: 10px;&quot;&gt;宇佐見&lt;/font&gt;&lt;/b&gt;" style="text;html=1;strokeColor=none;fillColor=none;align=center;verticalAlign=middle;whiteSpace=wrap;rounded=0;fontSize=11;fontFamily=Helvetica;fontColor=default;" parent="1" vertex="1">
          <mxGeometry x="-508" y="-1022.5" width="50" height="15" as="geometry" />
        </mxCell>
        <mxCell id="Rw5dygfvGm5HHu7KgE6S-89" value="&lt;b&gt;&lt;font style=&quot;font-size: 10px;&quot;&gt;メリー湿原&lt;/font&gt;&lt;/b&gt;" style="text;html=1;strokeColor=none;fillColor=none;align=center;verticalAlign=middle;whiteSpace=wrap;rounded=0;fontSize=11;fontFamily=Helvetica;fontColor=default;" parent="1" vertex="1">
          <mxGeometry x="-512" y="-1054" width="65" height="15" as="geometry" />
        </mxCell>
        <mxCell id="Rw5dygfvGm5HHu7KgE6S-90" value="&lt;font style=&quot;font-size: 10px;&quot;&gt;&lt;b&gt;冥界口&lt;/b&gt;&lt;/font&gt;" style="text;html=1;strokeColor=none;fillColor=none;align=center;verticalAlign=middle;whiteSpace=wrap;rounded=0;fontSize=11;fontFamily=Helvetica;fontColor=default;" parent="1" vertex="1">
          <mxGeometry x="-576" y="-1059" width="50" height="15" as="geometry" />
        </mxCell>
        <mxCell id="Rw5dygfvGm5HHu7KgE6S-94" value="" style="ellipse;whiteSpace=wrap;html=1;aspect=fixed;" parent="1" vertex="1">
          <mxGeometry x="-548" y="-1075" width="10" height="10" as="geometry" />
        </mxCell>
        <mxCell id="Ivb3BQ265d0Xipn8B_8D-16" value="" style="endArrow=none;html=1;rounded=1;curved=0;strokeWidth=3;strokeColor=#FFFFFF;dashed=1;dashPattern=8 8;" edge="1" parent="1">
          <mxGeometry width="50" height="50" relative="1" as="geometry">
            <mxPoint x="-338" y="-395" as="sourcePoint" />
            <mxPoint x="-168" y="-520" as="targetPoint" />
            <Array as="points">
              <mxPoint x="-338" y="-495" />
              <mxPoint x="-168" y="-495" />
            </Array>
          </mxGeometry>
        </mxCell>
        <mxCell id="Rw5dygfvGm5HHu7KgE6S-96" value="&lt;b&gt;&lt;font style=&quot;font-size: 10px;&quot;&gt;浜川幽別&lt;/font&gt;&lt;/b&gt;" style="text;html=1;strokeColor=none;fillColor=none;align=center;verticalAlign=middle;whiteSpace=wrap;rounded=0;fontSize=11;fontFamily=Helvetica;fontColor=default;" parent="1" vertex="1">
          <mxGeometry x="-539" y="-1084" width="50" height="15" as="geometry" />
        </mxCell>
        <mxCell id="Rw5dygfvGm5HHu7KgE6S-97" value="&lt;b&gt;&lt;font style=&quot;font-size: 10px;&quot;&gt;北幌&lt;/font&gt;&lt;/b&gt;" style="text;html=1;strokeColor=none;fillColor=none;align=center;verticalAlign=middle;whiteSpace=wrap;rounded=0;fontSize=11;fontFamily=Helvetica;fontColor=default;" parent="1" vertex="1">
          <mxGeometry x="-592" y="-1099" width="50" height="15" as="geometry" />
        </mxCell>
        <mxCell id="Rw5dygfvGm5HHu7KgE6S-98" value="&lt;b&gt;&lt;font style=&quot;font-size: 10px;&quot;&gt;幽明西三条&lt;/font&gt;&lt;/b&gt;" style="text;html=1;strokeColor=none;fillColor=none;align=center;verticalAlign=middle;whiteSpace=wrap;rounded=0;fontSize=11;fontFamily=Helvetica;fontColor=default;" parent="1" vertex="1">
          <mxGeometry x="-559" y="-1165" width="64" height="15" as="geometry" />
        </mxCell>
        <mxCell id="Rw5dygfvGm5HHu7KgE6S-99" value="&lt;b&gt;&lt;font style=&quot;font-size: 10px;&quot;&gt;新幽明&lt;/font&gt;&lt;/b&gt;" style="text;html=1;strokeColor=none;fillColor=none;align=center;verticalAlign=middle;whiteSpace=wrap;rounded=0;fontSize=11;fontFamily=Helvetica;fontColor=default;" parent="1" vertex="1">
          <mxGeometry x="-624" y="-1184" width="64" height="15" as="geometry" />
        </mxCell>
        <mxCell id="Rw5dygfvGm5HHu7KgE6S-100" value="&lt;font style=&quot;font-size: 10px;&quot;&gt;&lt;b&gt;永江&lt;/b&gt;&lt;/font&gt;" style="text;html=1;strokeColor=none;fillColor=none;align=center;verticalAlign=middle;whiteSpace=wrap;rounded=0;fontSize=11;fontFamily=Helvetica;fontColor=default;" parent="1" vertex="1">
          <mxGeometry x="-580" y="-1215" width="64" height="15" as="geometry" />
        </mxCell>
        <mxCell id="Rw5dygfvGm5HHu7KgE6S-101" value="&lt;font style=&quot;font-size: 10px;&quot;&gt;&lt;b&gt;桜狩&lt;/b&gt;&lt;/font&gt;" style="text;html=1;strokeColor=none;fillColor=none;align=center;verticalAlign=middle;whiteSpace=wrap;rounded=0;fontSize=11;fontFamily=Helvetica;fontColor=default;" parent="1" vertex="1">
          <mxGeometry x="-540" y="-1190" width="64" height="15" as="geometry" />
        </mxCell>
        <mxCell id="Rw5dygfvGm5HHu7KgE6S-102" value="&lt;font style=&quot;font-size: 10px;&quot;&gt;&lt;b&gt;東メルラン&lt;/b&gt;&lt;/font&gt;" style="text;html=1;strokeColor=none;fillColor=none;align=center;verticalAlign=middle;whiteSpace=wrap;rounded=0;fontSize=11;fontFamily=Helvetica;fontColor=default;" parent="1" vertex="1">
          <mxGeometry x="-487" y="-1223" width="67" height="15" as="geometry" />
        </mxCell>
        <mxCell id="Rw5dygfvGm5HHu7KgE6S-103" value="&lt;font style=&quot;font-size: 10px;&quot;&gt;&lt;b&gt;メルラン&lt;/b&gt;&lt;/font&gt;" style="text;html=1;strokeColor=none;fillColor=none;align=center;verticalAlign=middle;whiteSpace=wrap;rounded=0;fontSize=11;fontFamily=Helvetica;fontColor=default;" parent="1" vertex="1">
          <mxGeometry x="-510" y="-1257" width="52" height="20" as="geometry" />
        </mxCell>
        <mxCell id="Rw5dygfvGm5HHu7KgE6S-104" value="&lt;b&gt;&lt;font style=&quot;font-size: 10px;&quot;&gt;幽明池田&lt;/font&gt;&lt;/b&gt;" style="text;html=1;strokeColor=none;fillColor=none;align=center;verticalAlign=middle;whiteSpace=wrap;rounded=0;fontSize=11;fontFamily=Helvetica;fontColor=default;" parent="1" vertex="1">
          <mxGeometry x="-571" y="-1257" width="67" height="20" as="geometry" />
        </mxCell>
        <mxCell id="Rw5dygfvGm5HHu7KgE6S-105" value="&lt;font style=&quot;font-size: 10px;&quot;&gt;&lt;b&gt;幽明白滝&lt;/b&gt;&lt;/font&gt;" style="text;html=1;strokeColor=none;fillColor=none;align=center;verticalAlign=middle;whiteSpace=wrap;rounded=0;fontSize=11;fontFamily=Helvetica;fontColor=default;" parent="1" vertex="1">
          <mxGeometry x="-623" y="-1230" width="60" height="15" as="geometry" />
        </mxCell>
        <mxCell id="Rw5dygfvGm5HHu7KgE6S-106" value="&lt;b&gt;&lt;font style=&quot;font-size: 10px;&quot;&gt;冥界上川&lt;/font&gt;&lt;/b&gt;" style="text;html=1;strokeColor=none;fillColor=none;align=center;verticalAlign=middle;whiteSpace=wrap;rounded=0;fontSize=11;fontFamily=Helvetica;fontColor=default;" parent="1" vertex="1">
          <mxGeometry x="-650" y="-1263" width="67" height="15" as="geometry" />
        </mxCell>
        <mxCell id="Rw5dygfvGm5HHu7KgE6S-107" value="&lt;font style=&quot;font-size: 10px;&quot;&gt;&lt;b&gt;&lt;font style=&quot;font-size: 10px;&quot;&gt;冥界&lt;/font&gt;中里&lt;/b&gt;&lt;/font&gt;" style="text;html=1;strokeColor=none;fillColor=none;align=center;verticalAlign=middle;whiteSpace=wrap;rounded=0;fontSize=11;fontFamily=Helvetica;fontColor=default;" parent="1" vertex="1">
          <mxGeometry x="-650" y="-1283" width="67" height="15" as="geometry" />
        </mxCell>
        <mxCell id="Rw5dygfvGm5HHu7KgE6S-108" value="&lt;font style=&quot;font-size: 10px;&quot;&gt;&lt;b&gt;北中里&lt;/b&gt;&lt;/font&gt;" style="text;html=1;strokeColor=none;fillColor=none;align=center;verticalAlign=middle;whiteSpace=wrap;rounded=0;fontSize=11;fontFamily=Helvetica;fontColor=default;" parent="1" vertex="1">
          <mxGeometry x="-645" y="-1303" width="67" height="15" as="geometry" />
        </mxCell>
        <mxCell id="Rw5dygfvGm5HHu7KgE6S-109" value="&lt;b&gt;&lt;font style=&quot;font-size: 10px;&quot;&gt;太田&lt;/font&gt;&lt;/b&gt;" style="text;html=1;strokeColor=none;fillColor=none;align=center;verticalAlign=middle;whiteSpace=wrap;rounded=0;fontSize=11;fontFamily=Helvetica;fontColor=default;" parent="1" vertex="1">
          <mxGeometry x="-639" y="-1323" width="67" height="15" as="geometry" />
        </mxCell>
        <mxCell id="Rw5dygfvGm5HHu7KgE6S-110" value="&lt;b&gt;&lt;font style=&quot;font-size: 10px;&quot;&gt;空川&lt;/font&gt;&lt;/b&gt;" style="text;html=1;strokeColor=none;fillColor=none;align=center;verticalAlign=middle;whiteSpace=wrap;rounded=0;fontSize=11;fontFamily=Helvetica;fontColor=default;" parent="1" vertex="1">
          <mxGeometry x="-617" y="-1354" width="67" height="15" as="geometry" />
        </mxCell>
        <mxCell id="Rw5dygfvGm5HHu7KgE6S-111" value="&lt;b&gt;&lt;font style=&quot;font-size: 10px;&quot;&gt;白玉階段&lt;/font&gt;&lt;/b&gt;" style="text;html=1;strokeColor=none;fillColor=none;align=center;verticalAlign=middle;whiteSpace=wrap;rounded=0;fontSize=11;fontFamily=Helvetica;fontColor=default;" parent="1" vertex="1">
          <mxGeometry x="-554" y="-1364" width="67" height="15" as="geometry" />
        </mxCell>
        <mxCell id="Rw5dygfvGm5HHu7KgE6S-112" value="&lt;b&gt;&lt;font style=&quot;font-size: 10px;&quot;&gt;西行妖&lt;/font&gt;&lt;/b&gt;" style="text;html=1;strokeColor=none;fillColor=none;align=center;verticalAlign=middle;whiteSpace=wrap;rounded=0;fontSize=11;fontFamily=Helvetica;fontColor=default;" parent="1" vertex="1">
          <mxGeometry x="-543" y="-1405" width="35" height="15" as="geometry" />
        </mxCell>
        <mxCell id="Rw5dygfvGm5HHu7KgE6S-113" value="&lt;font size=&quot;1&quot; color=&quot;#ffffff&quot;&gt;&lt;b style=&quot;font-size: 12px;&quot;&gt;妖怪山線&lt;/b&gt;&lt;/font&gt;" style="rounded=1;whiteSpace=wrap;html=1;fontFamily=Helvetica;fontSize=11;fontColor=default;strokeColor=none;fillColor=#00CC00;opacity=90;" parent="1" vertex="1">
          <mxGeometry x="-358" y="-690" width="59" height="20" as="geometry" />
        </mxCell>
        <mxCell id="xDn3wvnqnu_-Lds5UZNF-5" value="" style="ellipse;whiteSpace=wrap;html=1;aspect=fixed;" parent="1" vertex="1">
          <mxGeometry x="-253" y="-640" width="10" height="10" as="geometry" />
        </mxCell>
        <mxCell id="tzKpOQWYOQej8DqPO7ZZ-6" value="" style="endArrow=none;html=1;rounded=1;strokeColor=#FF9933;curved=0;strokeWidth=6;exitX=0.5;exitY=0.5;exitDx=0;exitDy=0;exitPerimeter=0;entryX=0.504;entryY=0.832;entryDx=0;entryDy=0;entryPerimeter=0;" parent="1" source="tzKpOQWYOQej8DqPO7ZZ-28" edge="1" target="tzKpOQWYOQej8DqPO7ZZ-4">
          <mxGeometry width="50" height="50" relative="1" as="geometry">
            <mxPoint x="-448" y="-155" as="sourcePoint" />
            <mxPoint x="-223" y="-210" as="targetPoint" />
            <Array as="points">
              <mxPoint x="-223" y="-155" />
            </Array>
          </mxGeometry>
        </mxCell>
        <mxCell id="tzKpOQWYOQej8DqPO7ZZ-5" value="" style="endArrow=none;html=1;rounded=1;strokeColor=#ff0000;strokeWidth=6;curved=0;exitX=0.254;exitY=0.291;exitDx=0;exitDy=0;exitPerimeter=0;entryX=0.5;entryY=0.5;entryDx=0;entryDy=0;entryPerimeter=0;" parent="1" source="2lCTwFAhln7CDwlXWDaY-9" target="tzKpOQWYOQej8DqPO7ZZ-4" edge="1">
          <mxGeometry width="50" height="50" relative="1" as="geometry">
            <mxPoint x="-288" y="-210" as="sourcePoint" />
            <mxPoint x="-243" y="-220" as="targetPoint" />
            <Array as="points">
              <mxPoint x="-288" y="-220" />
            </Array>
          </mxGeometry>
        </mxCell>
        <mxCell id="tzKpOQWYOQej8DqPO7ZZ-4" value="" style="rounded=1;whiteSpace=wrap;html=1;strokeColor=default;fillColor=#FFFFFF;arcSize=24;strokeWidth=2;" parent="1" vertex="1">
          <mxGeometry x="-233" y="-225" width="20" height="10" as="geometry" />
        </mxCell>
        <mxCell id="2lCTwFAhln7CDwlXWDaY-18" value="" style="group" parent="1" connectable="0" vertex="1">
          <mxGeometry x="-338" y="-230" width="45" height="25" as="geometry" />
        </mxCell>
        <mxCell id="2lCTwFAhln7CDwlXWDaY-9" value="" style="ellipse;whiteSpace=wrap;html=1;aspect=fixed;" parent="2lCTwFAhln7CDwlXWDaY-18" vertex="1">
          <mxGeometry x="35" width="10" height="10" as="geometry" />
        </mxCell>
        <mxCell id="2lCTwFAhln7CDwlXWDaY-16" value="&lt;b style=&quot;font-size: 10px;&quot;&gt;竹林&lt;/b&gt;" style="text;html=1;strokeColor=none;fillColor=none;align=center;verticalAlign=middle;whiteSpace=wrap;rounded=0;fontSize=11;fontFamily=Helvetica;fontColor=default;" parent="2lCTwFAhln7CDwlXWDaY-18" vertex="1">
          <mxGeometry x="5" y="10" width="30" height="15" as="geometry" />
        </mxCell>
        <mxCell id="tzKpOQWYOQej8DqPO7ZZ-7" value="" style="ellipse;whiteSpace=wrap;html=1;aspect=fixed;" parent="1" vertex="1">
          <mxGeometry x="-227.99888888888893" y="-190" width="10" height="10" as="geometry" />
        </mxCell>
        <mxCell id="tzKpOQWYOQej8DqPO7ZZ-9" value="" style="ellipse;whiteSpace=wrap;html=1;aspect=fixed;" parent="1" vertex="1">
          <mxGeometry x="-252.99888888888893" y="-160" width="10" height="10" as="geometry" />
        </mxCell>
        <mxCell id="tzKpOQWYOQej8DqPO7ZZ-10" value="" style="ellipse;whiteSpace=wrap;html=1;aspect=fixed;" parent="1" vertex="1">
          <mxGeometry x="-272.9988888888889" y="-160" width="10" height="10" as="geometry" />
        </mxCell>
        <mxCell id="tzKpOQWYOQej8DqPO7ZZ-11" value="" style="ellipse;whiteSpace=wrap;html=1;aspect=fixed;" parent="1" vertex="1">
          <mxGeometry x="-292.9988888888889" y="-160" width="10" height="10" as="geometry" />
        </mxCell>
        <mxCell id="tzKpOQWYOQej8DqPO7ZZ-12" value="" style="ellipse;whiteSpace=wrap;html=1;aspect=fixed;" parent="1" vertex="1">
          <mxGeometry x="-312.9988888888889" y="-160" width="10" height="10" as="geometry" />
        </mxCell>
        <mxCell id="tzKpOQWYOQej8DqPO7ZZ-13" value="" style="ellipse;whiteSpace=wrap;html=1;aspect=fixed;" parent="1" vertex="1">
          <mxGeometry x="-332.9988888888889" y="-160" width="10" height="10" as="geometry" />
        </mxCell>
        <mxCell id="tzKpOQWYOQej8DqPO7ZZ-14" value="" style="ellipse;whiteSpace=wrap;html=1;aspect=fixed;" parent="1" vertex="1">
          <mxGeometry x="-352.9988888888889" y="-160" width="10" height="10" as="geometry" />
        </mxCell>
        <mxCell id="tzKpOQWYOQej8DqPO7ZZ-15" value="" style="ellipse;whiteSpace=wrap;html=1;aspect=fixed;" parent="1" vertex="1">
          <mxGeometry x="-372.9988888888889" y="-160" width="10" height="10" as="geometry" />
        </mxCell>
        <mxCell id="tzKpOQWYOQej8DqPO7ZZ-16" value="" style="ellipse;whiteSpace=wrap;html=1;aspect=fixed;" parent="1" vertex="1">
          <mxGeometry x="-392.9988888888889" y="-160" width="10" height="10" as="geometry" />
        </mxCell>
        <mxCell id="tzKpOQWYOQej8DqPO7ZZ-17" value="&lt;b&gt;ひまわり畑&lt;/b&gt;" style="text;html=1;strokeColor=none;fillColor=none;align=center;verticalAlign=middle;whiteSpace=wrap;rounded=0;fontSize=11;fontFamily=Helvetica;fontColor=default;" parent="1" vertex="1">
          <mxGeometry x="-218" y="-190" width="60" height="15" as="geometry" />
        </mxCell>
        <mxCell id="tzKpOQWYOQej8DqPO7ZZ-18" value="&lt;b&gt;幻想風穴&lt;/b&gt;" style="text;html=1;strokeColor=none;fillColor=none;align=center;verticalAlign=middle;whiteSpace=wrap;rounded=0;fontSize=11;fontFamily=Helvetica;fontColor=default;rotation=45;" parent="1" vertex="1">
          <mxGeometry x="-258" y="-135" width="50" height="15" as="geometry" />
        </mxCell>
        <mxCell id="tzKpOQWYOQej8DqPO7ZZ-19" value="&lt;b&gt;深道&lt;/b&gt;" style="text;html=1;strokeColor=none;fillColor=none;align=center;verticalAlign=middle;whiteSpace=wrap;rounded=0;fontSize=11;fontFamily=Helvetica;fontColor=default;rotation=45;" parent="1" vertex="1">
          <mxGeometry x="-278" y="-145" width="30" height="15" as="geometry" />
        </mxCell>
        <mxCell id="tzKpOQWYOQej8DqPO7ZZ-20" value="&lt;b&gt;水橋&lt;/b&gt;" style="text;html=1;strokeColor=none;fillColor=none;align=center;verticalAlign=middle;whiteSpace=wrap;rounded=0;fontSize=11;fontFamily=Helvetica;fontColor=default;rotation=45;" parent="1" vertex="1">
          <mxGeometry x="-298" y="-145" width="30" height="15" as="geometry" />
        </mxCell>
        <mxCell id="tzKpOQWYOQej8DqPO7ZZ-21" value="&lt;b&gt;サトリ&lt;/b&gt;" style="text;html=1;strokeColor=none;fillColor=none;align=center;verticalAlign=middle;whiteSpace=wrap;rounded=0;fontSize=11;fontFamily=Helvetica;fontColor=default;rotation=45;" parent="1" vertex="1">
          <mxGeometry x="-318" y="-140" width="35" height="15" as="geometry" />
        </mxCell>
        <mxCell id="tzKpOQWYOQej8DqPO7ZZ-23" value="&lt;b&gt;星熊温泉&lt;/b&gt;" style="text;html=1;strokeColor=none;fillColor=none;align=center;verticalAlign=middle;whiteSpace=wrap;rounded=0;fontSize=11;fontFamily=Helvetica;fontColor=default;rotation=45;" parent="1" vertex="1">
          <mxGeometry x="-340.2" y="-135" width="50" height="15" as="geometry" />
        </mxCell>
        <mxCell id="tzKpOQWYOQej8DqPO7ZZ-24" value="&lt;b&gt;東旧都&lt;/b&gt;" style="text;html=1;strokeColor=none;fillColor=none;align=center;verticalAlign=middle;whiteSpace=wrap;rounded=0;fontSize=11;fontFamily=Helvetica;fontColor=default;rotation=45;" parent="1" vertex="1">
          <mxGeometry x="-358" y="-140" width="35" height="15" as="geometry" />
        </mxCell>
        <mxCell id="tzKpOQWYOQej8DqPO7ZZ-25" value="&lt;b&gt;旧都&lt;/b&gt;" style="text;html=1;strokeColor=none;fillColor=none;align=center;verticalAlign=middle;whiteSpace=wrap;rounded=0;fontSize=11;fontFamily=Helvetica;fontColor=default;rotation=45;" parent="1" vertex="1">
          <mxGeometry x="-376.53999999999996" y="-143.54000000000002" width="25" height="15" as="geometry" />
        </mxCell>
        <mxCell id="tzKpOQWYOQej8DqPO7ZZ-26" value="&lt;b&gt;下旧都&lt;/b&gt;" style="text;html=1;strokeColor=none;fillColor=none;align=center;verticalAlign=middle;whiteSpace=wrap;rounded=0;fontSize=11;fontFamily=Helvetica;fontColor=default;rotation=45;" parent="1" vertex="1">
          <mxGeometry x="-398" y="-140" width="35" height="15" as="geometry" />
        </mxCell>
        <mxCell id="tzKpOQWYOQej8DqPO7ZZ-27" value="" style="ellipse;whiteSpace=wrap;html=1;aspect=fixed;" parent="1" vertex="1">
          <mxGeometry x="-412.9988888888889" y="-160" width="10" height="10" as="geometry" />
        </mxCell>
        <mxCell id="tzKpOQWYOQej8DqPO7ZZ-28" value="" style="ellipse;whiteSpace=wrap;html=1;aspect=fixed;" parent="1" vertex="1">
          <mxGeometry x="-432.9988888888889" y="-160" width="10" height="10" as="geometry" />
        </mxCell>
        <mxCell id="tzKpOQWYOQej8DqPO7ZZ-29" value="&lt;b&gt;上古明地&lt;br&gt;&lt;/b&gt;" style="text;html=1;strokeColor=none;fillColor=none;align=center;verticalAlign=middle;whiteSpace=wrap;rounded=0;fontSize=11;fontFamily=Helvetica;fontColor=default;rotation=45;" parent="1" vertex="1">
          <mxGeometry x="-423" y="-140" width="50" height="15" as="geometry" />
        </mxCell>
        <mxCell id="tzKpOQWYOQej8DqPO7ZZ-30" value="&lt;b&gt;地霊殿&lt;br&gt;&lt;/b&gt;" style="text;html=1;strokeColor=none;fillColor=none;align=center;verticalAlign=middle;whiteSpace=wrap;rounded=0;fontSize=11;fontFamily=Helvetica;fontColor=default;rotation=45;" parent="1" vertex="1">
          <mxGeometry x="-438" y="-140.3" width="35" height="15" as="geometry" />
        </mxCell>
        <mxCell id="tzKpOQWYOQej8DqPO7ZZ-31" value="&lt;font size=&quot;1&quot; color=&quot;#ffffff&quot;&gt;&lt;b style=&quot;font-size: 12px;&quot;&gt;旧都本線&lt;/b&gt;&lt;/font&gt;" style="rounded=1;whiteSpace=wrap;html=1;fontFamily=Helvetica;fontSize=11;fontColor=default;strokeColor=none;fillColor=#FF9933;opacity=90;gradientColor=none;" parent="1" vertex="1">
          <mxGeometry x="-493" y="-165" width="55" height="20" as="geometry" />
        </mxCell>
        <mxCell id="vYkFGx1_SyEl9Rzi1dy4-1" value="" style="ellipse;whiteSpace=wrap;html=1;aspect=fixed;" parent="1" vertex="1">
          <mxGeometry x="-553" y="-1380" width="10" height="10" as="geometry" />
        </mxCell>
        <mxCell id="vYkFGx1_SyEl9Rzi1dy4-2" value="&lt;b&gt;&lt;font style=&quot;font-size: 10px;&quot;&gt;白玉楼&lt;/font&gt;&lt;/b&gt;" style="text;html=1;strokeColor=none;fillColor=none;align=center;verticalAlign=middle;whiteSpace=wrap;rounded=0;fontSize=11;fontFamily=Helvetica;fontColor=default;" parent="1" vertex="1">
          <mxGeometry x="-543" y="-1385" width="35" height="15" as="geometry" />
        </mxCell>
        <mxCell id="2lCTwFAhln7CDwlXWDaY-48" value="" style="ellipse;whiteSpace=wrap;html=1;aspect=fixed;" parent="1" vertex="1">
          <mxGeometry x="-553" y="-392" width="10" height="10" as="geometry" />
        </mxCell>
        <mxCell id="pH5Xy83wDYZSJfrejwgW-1" value="" style="ellipse;whiteSpace=wrap;html=1;aspect=fixed;" parent="1" vertex="1">
          <mxGeometry x="-447" y="-600" width="10" height="10" as="geometry" />
        </mxCell>
        <mxCell id="Ivb3BQ265d0Xipn8B_8D-1" value="" style="endArrow=none;html=1;rounded=0;strokeColor=#0000CC;strokeWidth=6;" edge="1" parent="1">
          <mxGeometry width="50" height="50" relative="1" as="geometry">
            <mxPoint x="-167.23000000000002" y="-379" as="sourcePoint" />
            <mxPoint x="-167.23000000000002" y="-525" as="targetPoint" />
          </mxGeometry>
        </mxCell>
        <mxCell id="Ivb3BQ265d0Xipn8B_8D-17" value="" style="endArrow=none;html=1;rounded=0;strokeColor=#FFFFFF;strokeWidth=3;dashed=1;dashPattern=8 8;" edge="1" parent="1">
          <mxGeometry width="50" height="50" relative="1" as="geometry">
            <mxPoint x="-167.23000000000002" y="-379" as="sourcePoint" />
            <mxPoint x="-167.23000000000002" y="-525" as="targetPoint" />
          </mxGeometry>
        </mxCell>
        <mxCell id="Ivb3BQ265d0Xipn8B_8D-3" value="" style="ellipse;whiteSpace=wrap;html=1;aspect=fixed;" vertex="1" parent="1">
          <mxGeometry x="-172.23000000000002" y="-380" width="10" height="10" as="geometry" />
        </mxCell>
        <mxCell id="Ivb3BQ265d0Xipn8B_8D-5" value="" style="rounded=1;whiteSpace=wrap;html=1;strokeColor=default;fillColor=#FFFFFF;arcSize=25;strokeWidth=2;" vertex="1" parent="1">
          <mxGeometry x="-323" y="-520" width="10" height="30" as="geometry" />
        </mxCell>
        <mxCell id="Ivb3BQ265d0Xipn8B_8D-6" value="" style="ellipse;whiteSpace=wrap;html=1;aspect=fixed;" vertex="1" parent="1">
          <mxGeometry x="-343" y="-400" width="10" height="10" as="geometry" />
        </mxCell>
        <mxCell id="Ivb3BQ265d0Xipn8B_8D-8" value="" style="ellipse;whiteSpace=wrap;html=1;aspect=fixed;" vertex="1" parent="1">
          <mxGeometry x="-353" y="-325" width="10" height="10" as="geometry" />
        </mxCell>
        <mxCell id="Ivb3BQ265d0Xipn8B_8D-10" value="" style="endArrow=none;html=1;rounded=1;labelBackgroundColor=default;strokeColor=#808080;strokeWidth=6;fontFamily=Helvetica;fontSize=11;fontColor=default;startSize=0;endSize=0;shape=connector;" edge="1" parent="1" target="Ivb3BQ265d0Xipn8B_8D-9">
          <mxGeometry width="50" height="50" relative="1" as="geometry">
            <mxPoint x="-338" y="-365" as="sourcePoint" />
            <mxPoint x="-283" y="-365" as="targetPoint" />
            <Array as="points" />
          </mxGeometry>
        </mxCell>
        <mxCell id="Ivb3BQ265d0Xipn8B_8D-9" value="" style="rounded=1;whiteSpace=wrap;html=1;strokeColor=default;fillColor=#FFFFFF;arcSize=20;rotation=90;strokeWidth=2;" vertex="1" parent="1">
          <mxGeometry x="-350.5" y="-375" width="10" height="20" as="geometry" />
        </mxCell>
        <mxCell id="2lCTwFAhln7CDwlXWDaY-28" value="&lt;font style=&quot;font-size: 10px;&quot;&gt;&lt;font style=&quot;font-size: 10px;&quot;&gt;&lt;b style=&quot;&quot;&gt;南&lt;/b&gt;&lt;/font&gt;&lt;b&gt;人間の里&lt;/b&gt;&lt;/font&gt;" style="text;html=1;strokeColor=none;fillColor=none;align=left;verticalAlign=middle;whiteSpace=wrap;rounded=0;fontSize=11;fontFamily=Helvetica;fontColor=default;" parent="1" vertex="1">
          <mxGeometry x="-408.0038461538461" y="-330" width="70" height="15" as="geometry" />
        </mxCell>
        <mxCell id="Ivb3BQ265d0Xipn8B_8D-11" value="&lt;font style=&quot;font-size: 10px;&quot;&gt;&lt;b&gt;人間の里&lt;/b&gt;&lt;/font&gt;" style="text;html=1;strokeColor=none;fillColor=none;align=center;verticalAlign=middle;whiteSpace=wrap;rounded=0;fontSize=11;fontFamily=Helvetica;fontColor=default;" vertex="1" parent="1">
          <mxGeometry x="-398" y="-360" width="45" height="15" as="geometry" />
        </mxCell>
        <mxCell id="Ivb3BQ265d0Xipn8B_8D-12" value="" style="rounded=1;whiteSpace=wrap;html=1;strokeColor=default;fillColor=#FFFFFF;arcSize=25;rotation=90;strokeWidth=2;" vertex="1" parent="1">
          <mxGeometry x="-201" y="-410" width="10" height="20" as="geometry" />
        </mxCell>
        <mxCell id="Ivb3BQ265d0Xipn8B_8D-13" value="&lt;span style=&quot;font-size: 10px;&quot;&gt;&lt;b&gt;博麗神社&lt;/b&gt;&lt;/span&gt;" style="text;html=1;strokeColor=none;fillColor=none;align=center;verticalAlign=middle;whiteSpace=wrap;rounded=0;fontSize=11;fontFamily=Helvetica;fontColor=default;" vertex="1" parent="1">
          <mxGeometry x="-253" y="-410" width="45" height="15" as="geometry" />
        </mxCell>
        <mxCell id="Ivb3BQ265d0Xipn8B_8D-32" value="" style="endArrow=none;html=1;rounded=1;entryX=-0.033;entryY=0.527;entryDx=0;entryDy=0;entryPerimeter=0;exitX=1.067;exitY=0.242;exitDx=0;exitDy=0;exitPerimeter=0;strokeWidth=6;curved=0;strokeColor=#0000cc;" edge="1" parent="1" source="Ivb3BQ265d0Xipn8B_8D-28" target="Ivb3BQ265d0Xipn8B_8D-19">
          <mxGeometry width="50" height="50" relative="1" as="geometry">
            <mxPoint x="-238" y="-865" as="sourcePoint" />
            <mxPoint x="-163" y="-569.6153846153846" as="targetPoint" />
            <Array as="points">
              <mxPoint x="-238" y="-815" />
              <mxPoint x="-268" y="-785" />
              <mxPoint x="-538" y="-785" />
              <mxPoint x="-538" y="-725" />
              <mxPoint x="-238" y="-725" />
              <mxPoint x="-168" y="-655" />
            </Array>
          </mxGeometry>
        </mxCell>
        <mxCell id="Ivb3BQ265d0Xipn8B_8D-14" value="" style="rounded=1;whiteSpace=wrap;html=1;strokeColor=default;fillColor=#FFFFFF;arcSize=26;strokeWidth=2;" vertex="1" parent="1">
          <mxGeometry x="-248" y="-515" width="10" height="25" as="geometry" />
        </mxCell>
        <mxCell id="Ivb3BQ265d0Xipn8B_8D-34" value="" style="endArrow=none;html=1;rounded=1;exitX=1.067;exitY=0.242;exitDx=0;exitDy=0;exitPerimeter=0;strokeWidth=3;curved=0;strokeColor=#FFFFFF;dashed=1;dashPattern=8 8;entryX=0.012;entryY=0.548;entryDx=0;entryDy=0;entryPerimeter=0;" edge="1" parent="1" target="Ivb3BQ265d0Xipn8B_8D-19">
          <mxGeometry width="50" height="50" relative="1" as="geometry">
            <mxPoint x="-238" y="-869" as="sourcePoint" />
            <mxPoint x="-168" y="-539" as="targetPoint" />
            <Array as="points">
              <mxPoint x="-238" y="-815" />
              <mxPoint x="-268" y="-785" />
              <mxPoint x="-538" y="-785" />
              <mxPoint x="-538" y="-725" />
              <mxPoint x="-238" y="-725" />
              <mxPoint x="-168" y="-655" />
            </Array>
          </mxGeometry>
        </mxCell>
        <mxCell id="Ivb3BQ265d0Xipn8B_8D-18" value="" style="ellipse;whiteSpace=wrap;html=1;aspect=fixed;" vertex="1" parent="1">
          <mxGeometry x="-343" y="-450" width="10" height="10" as="geometry" />
        </mxCell>
        <mxCell id="Ivb3BQ265d0Xipn8B_8D-19" value="" style="rounded=1;whiteSpace=wrap;html=1;strokeColor=default;fillColor=#FFFFFF;arcSize=25;rotation=90;strokeWidth=2;" vertex="1" parent="1">
          <mxGeometry x="-173" y="-534.22" width="12" height="12" as="geometry" />
        </mxCell>
        <mxCell id="Ivb3BQ265d0Xipn8B_8D-20" value="&lt;span style=&quot;font-size: 10px;&quot;&gt;&lt;b&gt;紅魔館&lt;/b&gt;&lt;/span&gt;" style="text;html=1;strokeColor=none;fillColor=none;align=center;verticalAlign=middle;whiteSpace=wrap;rounded=0;fontSize=11;fontFamily=Helvetica;fontColor=default;" vertex="1" parent="1">
          <mxGeometry x="-263" y="-535" width="40" height="15" as="geometry" />
        </mxCell>
        <mxCell id="Ivb3BQ265d0Xipn8B_8D-21" value="&lt;span style=&quot;font-size: 10px;&quot;&gt;&lt;b&gt;新紅魔&lt;/b&gt;&lt;/span&gt;" style="text;html=1;strokeColor=none;fillColor=none;align=center;verticalAlign=middle;whiteSpace=wrap;rounded=0;fontSize=11;fontFamily=Helvetica;fontColor=default;" vertex="1" parent="1">
          <mxGeometry x="-157.23000000000002" y="-535" width="40" height="15" as="geometry" />
        </mxCell>
        <mxCell id="Ivb3BQ265d0Xipn8B_8D-22" value="&lt;b style=&quot;font-size: 10px;&quot;&gt;永遠亭&lt;/b&gt;" style="text;html=1;strokeColor=none;fillColor=none;align=center;verticalAlign=middle;whiteSpace=wrap;rounded=0;fontSize=11;fontFamily=Helvetica;fontColor=default;" vertex="1" parent="1">
          <mxGeometry x="-213" y="-230" width="40" height="15" as="geometry" />
        </mxCell>
        <mxCell id="Ivb3BQ265d0Xipn8B_8D-23" value="" style="ellipse;whiteSpace=wrap;html=1;aspect=fixed;strokeWidth=2;" vertex="1" parent="1">
          <mxGeometry x="-293" y="-675" width="10" height="10" as="geometry" />
        </mxCell>
        <mxCell id="Ivb3BQ265d0Xipn8B_8D-24" value="&lt;b&gt;&lt;font style=&quot;font-size: 10px;&quot;&gt;無縁塚&lt;/font&gt;&lt;/b&gt;" style="text;html=1;strokeColor=none;fillColor=none;align=center;verticalAlign=middle;whiteSpace=wrap;rounded=0;fontSize=11;fontFamily=Helvetica;fontColor=default;" vertex="1" parent="1">
          <mxGeometry x="-278" y="-680" width="35" height="15" as="geometry" />
        </mxCell>
        <mxCell id="Ivb3BQ265d0Xipn8B_8D-25" value="&lt;font style=&quot;font-size: 10px;&quot;&gt;&lt;b&gt;人里中央&lt;/b&gt;&lt;/font&gt;" style="text;html=1;strokeColor=none;fillColor=none;align=center;verticalAlign=middle;whiteSpace=wrap;rounded=0;fontSize=11;fontFamily=Helvetica;fontColor=default;" vertex="1" parent="1">
          <mxGeometry x="-333" y="-405" width="45" height="15" as="geometry" />
        </mxCell>
        <mxCell id="Ivb3BQ265d0Xipn8B_8D-26" value="&lt;font style=&quot;font-size: 10px;&quot;&gt;&lt;b&gt;稗田&lt;/b&gt;&lt;/font&gt;" style="text;html=1;strokeColor=none;fillColor=none;align=center;verticalAlign=middle;whiteSpace=wrap;rounded=0;fontSize=11;fontFamily=Helvetica;fontColor=default;" vertex="1" parent="1">
          <mxGeometry x="-368" y="-450" width="25" height="15" as="geometry" />
        </mxCell>
        <mxCell id="Ivb3BQ265d0Xipn8B_8D-27" value="&lt;font style=&quot;font-size: 10px;&quot;&gt;&lt;b&gt;博麗神社東&lt;/b&gt;&lt;/font&gt;" style="text;html=1;strokeColor=none;fillColor=none;align=center;verticalAlign=middle;whiteSpace=wrap;rounded=0;fontSize=11;fontFamily=Helvetica;fontColor=default;" vertex="1" parent="1">
          <mxGeometry x="-157.23000000000002" y="-385" width="55" height="15" as="geometry" />
        </mxCell>
        <mxCell id="Ivb3BQ265d0Xipn8B_8D-28" value="" style="rounded=1;whiteSpace=wrap;html=1;strokeColor=default;fillColor=#FFFFFF;arcSize=25;rotation=90;strokeWidth=2;" vertex="1" parent="1">
          <mxGeometry x="-248" y="-885" width="10" height="20" as="geometry" />
        </mxCell>
        <mxCell id="Ivb3BQ265d0Xipn8B_8D-29" value="" style="rounded=1;whiteSpace=wrap;html=1;strokeColor=default;fillColor=#FFFFFF;arcSize=25;rotation=90;strokeWidth=2;" vertex="1" parent="1">
          <mxGeometry x="-548" y="-750" width="10" height="20" as="geometry" />
        </mxCell>
        <mxCell id="Ivb3BQ265d0Xipn8B_8D-30" value="" style="rounded=1;whiteSpace=wrap;html=1;strokeColor=default;fillColor=#FFFFFF;arcSize=26;strokeWidth=2;" vertex="1" parent="1">
          <mxGeometry x="-413" y="-800" width="10" height="20" as="geometry" />
        </mxCell>
        <mxCell id="Ivb3BQ265d0Xipn8B_8D-31" value="" style="rounded=1;whiteSpace=wrap;html=1;strokeColor=default;fillColor=#FFFFFF;arcSize=26;strokeWidth=2;" vertex="1" parent="1">
          <mxGeometry x="-373" y="-730" width="10" height="20" as="geometry" />
        </mxCell>
        <mxCell id="Ivb3BQ265d0Xipn8B_8D-33" value="&lt;b&gt;&lt;font style=&quot;font-size: 10px;&quot;&gt;八雲邸&lt;/font&gt;&lt;/b&gt;" style="text;html=1;strokeColor=none;fillColor=none;align=center;verticalAlign=middle;whiteSpace=wrap;rounded=0;fontSize=11;fontFamily=Helvetica;fontColor=default;" vertex="1" parent="1">
          <mxGeometry x="-228" y="-885" width="35" height="15" as="geometry" />
        </mxCell>
        <mxCell id="2lCTwFAhln7CDwlXWDaY-4" value="&lt;font style=&quot;font-size: 10px;&quot;&gt;&lt;b style=&quot;&quot;&gt;南&lt;/b&gt;&lt;b&gt;博麗&lt;/b&gt;&lt;/font&gt;" style="text;html=1;strokeColor=none;fillColor=none;align=center;verticalAlign=middle;whiteSpace=wrap;rounded=0;fontSize=11;fontFamily=Helvetica;fontColor=default;" parent="1" vertex="1">
          <mxGeometry x="-208" y="-315" width="48.61111111111111" height="15" as="geometry" />
        </mxCell>
        <mxCell id="Ivb3BQ265d0Xipn8B_8D-35" value="&lt;font size=&quot;1&quot; color=&quot;#ffffff&quot;&gt;&lt;b style=&quot;font-size: 12px;&quot;&gt;幽明結界線&lt;/b&gt;&lt;/font&gt;" style="rounded=1;whiteSpace=wrap;html=1;fontFamily=Helvetica;fontSize=11;fontColor=default;strokeColor=none;fillColor=#9933FF;opacity=90;" vertex="1" parent="1">
          <mxGeometry x="-328" y="-905" width="70" height="20" as="geometry" />
        </mxCell>
        <mxCell id="Ivb3BQ265d0Xipn8B_8D-36" value="&lt;font size=&quot;1&quot; color=&quot;#ffffff&quot;&gt;&lt;b style=&quot;font-size: 12px;&quot;&gt;冥界線&lt;/b&gt;&lt;/font&gt;" style="rounded=1;whiteSpace=wrap;html=1;fontFamily=Helvetica;fontSize=11;fontColor=default;strokeColor=none;fillColor=#FF99FF;opacity=90;" vertex="1" parent="1">
          <mxGeometry x="-613" y="-1140" width="45" height="20" as="geometry" />
        </mxCell>
        <mxCell id="Ivb3BQ265d0Xipn8B_8D-37" value="" style="ellipse;whiteSpace=wrap;html=1;aspect=fixed;strokeWidth=2;" vertex="1" parent="1">
          <mxGeometry x="-553" y="-1120" width="10" height="10" as="geometry" />
        </mxCell>
        <mxCell id="Ivb3BQ265d0Xipn8B_8D-38" value="&lt;b&gt;&lt;font style=&quot;font-size: 10px;&quot;&gt;幽明&lt;/font&gt;&lt;/b&gt;" style="text;html=1;strokeColor=none;fillColor=none;align=center;verticalAlign=middle;whiteSpace=wrap;rounded=0;fontSize=11;fontFamily=Helvetica;fontColor=default;" vertex="1" parent="1">
          <mxGeometry x="-548" y="-1125" width="40" height="15" as="geometry" />
        </mxCell>
        <mxCell id="Ivb3BQ265d0Xipn8B_8D-39" value="&lt;font size=&quot;1&quot; color=&quot;#ffffff&quot;&gt;&lt;b style=&quot;font-size: 12px;&quot;&gt;妖怪山標準軌実験線&lt;/b&gt;&lt;/font&gt;" style="rounded=1;whiteSpace=wrap;html=1;fontFamily=Helvetica;fontSize=11;fontColor=default;strokeColor=none;fillColor=#0000cc;opacity=90;" vertex="1" parent="1">
          <mxGeometry x="-228" y="-865" width="120" height="20" as="geometry" />
        </mxCell>
        <mxCell id="Ivb3BQ265d0Xipn8B_8D-40" value="&lt;font size=&quot;1&quot; color=&quot;#ffffff&quot;&gt;&lt;b style=&quot;font-size: 12px;&quot;&gt;博麗東線&lt;/b&gt;&lt;/font&gt;" style="rounded=1;whiteSpace=wrap;html=1;fontFamily=Helvetica;fontSize=11;fontColor=default;strokeColor=none;fillColor=#0000cc;opacity=90;" vertex="1" parent="1">
          <mxGeometry x="-148" y="-415" width="60" height="20" as="geometry" />
        </mxCell>
        <mxCell id="Ivb3BQ265d0Xipn8B_8D-41" value="&lt;font size=&quot;1&quot; color=&quot;#ffffff&quot;&gt;&lt;b style=&quot;font-size: 12px;&quot;&gt;霧の湖線&lt;/b&gt;&lt;/font&gt;" style="rounded=1;whiteSpace=wrap;html=1;fontFamily=Helvetica;fontSize=11;fontColor=default;strokeColor=none;fillColor=#0000cc;opacity=90;" vertex="1" parent="1">
          <mxGeometry x="-328" y="-480" width="60" height="20" as="geometry" />
        </mxCell>
        <mxCell id="Ivb3BQ265d0Xipn8B_8D-42" value="&lt;font size=&quot;1&quot; color=&quot;#ffffff&quot;&gt;&lt;b style=&quot;font-size: 12px;&quot;&gt;妖怪山標準軌実験線&lt;/b&gt;&lt;/font&gt;" style="rounded=1;whiteSpace=wrap;html=1;fontFamily=Helvetica;fontSize=11;fontColor=default;strokeColor=none;fillColor=#0000cc;opacity=90;" vertex="1" parent="1">
          <mxGeometry x="-148" y="-570" width="120" height="20" as="geometry" />
        </mxCell>
      </root>
    </mxGraphModel>
  </diagram>
</mxfile>
